<svg xmlns="http://www.w3.org/2000/svg" width="23.03" height="22.078" viewBox="0 0 23.03 22.078">
  <path id="Icon_awesome-star" data-name="Icon awesome-star" d="M11.261.732,8.576,6.176l-6.008.876A1.317,1.317,0,0,0,1.84,9.3l4.347,4.236L5.159,19.516A1.315,1.315,0,0,0,7.067,20.9l5.375-2.825L17.816,20.9a1.316,1.316,0,0,0,1.908-1.386L18.7,13.533,23.042,9.3a1.317,1.317,0,0,0-.728-2.245l-6.008-.876L13.622.732a1.317,1.317,0,0,0-2.36,0Z" transform="translate(-0.927 0.501)" fill="#fff" stroke="#b9b9b9" stroke-width="1"/>
</svg>
