<svg xmlns="http://www.w3.org/2000/svg" width="2011.811" height="293.038" viewBox="0 0 2011.811 293.038">
  <g id="Group_6998" data-name="Group 6998" transform="translate(47.811 -707.189)" opacity="0.2">
    <g id="Polygon_10" data-name="Polygon 10" transform="translate(8.757 726.189) rotate(45)" fill="#fff" opacity="0.5">
      <path d="M 76.44325256347656 78.50000762939453 L 15.55674934387207 78.50000762939453 C 12.84812545776367 78.50000762939453 10.42125511169434 77.10027313232422 9.06486701965332 74.7557373046875 C 7.708490371704102 72.41117858886719 7.704784393310547 69.60959625244141 9.054948806762695 67.26146697998047 L 39.49820709228516 14.31667518615723 C 40.85250091552734 11.96136951446533 43.28307723999023 10.55521678924561 45.99999618530273 10.55521678924561 C 48.71691513061523 10.55521678924561 51.14749145507813 11.96136951446533 52.50178527832031 14.31667518615723 L 82.94504547119141 67.26146697998047 C 84.29521942138672 69.60959625244141 84.29151153564453 72.41119384765625 82.93512725830078 74.7557373046875 C 81.57875061035156 77.10027313232422 79.15187835693359 78.50000762939453 76.44325256347656 78.50000762939453 Z" stroke="none"/>
      <path d="M 45.99999618530273 12.05520629882813 C 43.82646179199219 12.05520629882813 41.88199615478516 13.18012237548828 40.79855728149414 15.06437683105469 L 10.35530090332031 68.00916290283203 C 9.275169372558594 69.88767242431641 9.278129577636719 72.12895202636719 10.36325073242188 74.00459289550781 C 11.44835662841797 75.88021850585938 13.38984680175781 77 15.55673980712891 77 L 76.44325256347656 77 C 78.61014556884766 77 80.5516357421875 75.88021850585938 81.63674163818359 74.00459289550781 C 82.72186279296875 72.12895202636719 82.72482299804688 69.88767242431641 81.64469146728516 68.00916290283203 L 51.20143508911133 15.06437683105469 C 50.11799621582031 13.18012237548828 48.17353057861328 12.05520629882813 45.99999618530273 12.05520629882813 M 46 9.055206298828125 C 49.03594207763672 9.055206298828125 52.07188415527344 10.55979156494141 53.80215454101563 13.56896209716797 L 84.24540710449219 66.51374816894531 C 87.69539642333984 72.51373291015625 83.36439514160156 80 76.44325256347656 80 L 15.55673980712891 80 C 8.635597229003906 80 4.304595947265625 72.51373291015625 7.754585266113281 66.51374816894531 L 38.19783782958984 13.56896209716797 C 39.92811584472656 10.55979156494141 42.96405792236328 9.055206298828125 46 9.055206298828125 Z" stroke="none" fill="#008ba3"/>
    </g>
    <g id="Polygon_14" data-name="Polygon 14" transform="translate(1051.757 723.189) rotate(45)" fill="#fff" opacity="0.5">
      <path d="M 76.44325256347656 78.50000762939453 L 15.55674934387207 78.50000762939453 C 12.84812545776367 78.50000762939453 10.42125511169434 77.10027313232422 9.06486701965332 74.7557373046875 C 7.708490371704102 72.41117858886719 7.704784393310547 69.60959625244141 9.054948806762695 67.26146697998047 L 39.49820709228516 14.31667518615723 C 40.85250091552734 11.96136951446533 43.28307723999023 10.55521678924561 45.99999618530273 10.55521678924561 C 48.71691513061523 10.55521678924561 51.14749145507813 11.96136951446533 52.50178527832031 14.31667518615723 L 82.94504547119141 67.26146697998047 C 84.29521942138672 69.60959625244141 84.29151153564453 72.41119384765625 82.93512725830078 74.7557373046875 C 81.57875061035156 77.10027313232422 79.15187835693359 78.50000762939453 76.44325256347656 78.50000762939453 Z" stroke="none"/>
      <path d="M 45.99999618530273 12.05520629882813 C 43.82646179199219 12.05520629882813 41.88199615478516 13.18012237548828 40.79855728149414 15.06437683105469 L 10.35530090332031 68.00916290283203 C 9.275169372558594 69.88767242431641 9.278129577636719 72.12895202636719 10.36325073242188 74.00459289550781 C 11.44835662841797 75.88021850585938 13.38984680175781 77 15.55673980712891 77 L 76.44325256347656 77 C 78.61014556884766 77 80.5516357421875 75.88021850585938 81.63674163818359 74.00459289550781 C 82.72186279296875 72.12895202636719 82.72482299804688 69.88767242431641 81.64469146728516 68.00916290283203 L 51.20143508911133 15.06437683105469 C 50.11799621582031 13.18012237548828 48.17353057861328 12.05520629882813 45.99999618530273 12.05520629882813 M 46 9.055206298828125 C 49.03594207763672 9.055206298828125 52.07188415527344 10.55979156494141 53.80215454101563 13.56896209716797 L 84.24540710449219 66.51374816894531 C 87.69539642333984 72.51373291015625 83.36439514160156 80 76.44325256347656 80 L 15.55673980712891 80 C 8.635597229003906 80 4.304595947265625 72.51373291015625 7.754585266113281 66.51374816894531 L 38.19783782958984 13.56896209716797 C 39.92811584472656 10.55979156494141 42.96405792236328 9.055206298828125 46 9.055206298828125 Z" stroke="none" fill="#008ba3"/>
    </g>
    <g id="Polygon_17" data-name="Polygon 17" transform="translate(1419.757 792.189) rotate(45)" fill="#fff" opacity="0.5">
      <path d="M 76.44325256347656 78.50000762939453 L 15.55674934387207 78.50000762939453 C 12.84812545776367 78.50000762939453 10.42125511169434 77.10027313232422 9.06486701965332 74.7557373046875 C 7.708490371704102 72.41117858886719 7.704784393310547 69.60959625244141 9.054948806762695 67.26146697998047 L 39.49820709228516 14.31667518615723 C 40.85250091552734 11.96136951446533 43.28307723999023 10.55521678924561 45.99999618530273 10.55521678924561 C 48.71691513061523 10.55521678924561 51.14749145507813 11.96136951446533 52.50178527832031 14.31667518615723 L 82.94504547119141 67.26146697998047 C 84.29521942138672 69.60959625244141 84.29151153564453 72.41119384765625 82.93512725830078 74.7557373046875 C 81.57875061035156 77.10027313232422 79.15187835693359 78.50000762939453 76.44325256347656 78.50000762939453 Z" stroke="none"/>
      <path d="M 45.99999618530273 12.05520629882813 C 43.82646179199219 12.05520629882813 41.88199615478516 13.18012237548828 40.79855728149414 15.06437683105469 L 10.35530090332031 68.00916290283203 C 9.275169372558594 69.88767242431641 9.278129577636719 72.12895202636719 10.36325073242188 74.00459289550781 C 11.44835662841797 75.88021850585938 13.38984680175781 77 15.55673980712891 77 L 76.44325256347656 77 C 78.61014556884766 77 80.5516357421875 75.88021850585938 81.63674163818359 74.00459289550781 C 82.72186279296875 72.12895202636719 82.72482299804688 69.88767242431641 81.64469146728516 68.00916290283203 L 51.20143508911133 15.06437683105469 C 50.11799621582031 13.18012237548828 48.17353057861328 12.05520629882813 45.99999618530273 12.05520629882813 M 46 9.055206298828125 C 49.03594207763672 9.055206298828125 52.07188415527344 10.55979156494141 53.80215454101563 13.56896209716797 L 84.24540710449219 66.51374816894531 C 87.69539642333984 72.51373291015625 83.36439514160156 80 76.44325256347656 80 L 15.55673980712891 80 C 8.635597229003906 80 4.304595947265625 72.51373291015625 7.754585266113281 66.51374816894531 L 38.19783782958984 13.56896209716797 C 39.92811584472656 10.55979156494141 42.96405792236328 9.055206298828125 46 9.055206298828125 Z" stroke="none" fill="#9800a3"/>
    </g>
    <g id="Polygon_11" data-name="Polygon 11" transform="matrix(0.966, -0.259, 0.259, 0.966, 208.215, 734.269)" fill="#fff" opacity="0.5">
      <path d="M 76.44325256347656 78.50000762939453 L 15.55674934387207 78.50000762939453 C 12.84812545776367 78.50000762939453 10.42125511169434 77.10027313232422 9.06486701965332 74.7557373046875 C 7.708490371704102 72.41117858886719 7.704784393310547 69.60959625244141 9.054948806762695 67.26146697998047 L 39.49820709228516 14.31667518615723 C 40.85250091552734 11.96136951446533 43.28307723999023 10.55521678924561 45.99999618530273 10.55521678924561 C 48.71691513061523 10.55521678924561 51.14749145507813 11.96136951446533 52.50178527832031 14.31667518615723 L 82.94504547119141 67.26146697998047 C 84.29521942138672 69.60959625244141 84.29151153564453 72.41119384765625 82.93512725830078 74.7557373046875 C 81.57875061035156 77.10027313232422 79.15187835693359 78.50000762939453 76.44325256347656 78.50000762939453 Z" stroke="none"/>
      <path d="M 45.99999618530273 12.05520629882813 C 43.82646179199219 12.05520629882813 41.88199615478516 13.18012237548828 40.79855728149414 15.06437683105469 L 10.35530090332031 68.00916290283203 C 9.275169372558594 69.88767242431641 9.278129577636719 72.12895202636719 10.36325073242188 74.00459289550781 C 11.44835662841797 75.88021850585938 13.38984680175781 77 15.55673980712891 77 L 76.44325256347656 77 C 78.61014556884766 77 80.5516357421875 75.88021850585938 81.63674163818359 74.00459289550781 C 82.72186279296875 72.12895202636719 82.72482299804688 69.88767242431641 81.64469146728516 68.00916290283203 L 51.20143508911133 15.06437683105469 C 50.11799621582031 13.18012237548828 48.17353057861328 12.05520629882813 45.99999618530273 12.05520629882813 M 46 9.055206298828125 C 49.03594207763672 9.055206298828125 52.07188415527344 10.55979156494141 53.80215454101563 13.56896209716797 L 84.24540710449219 66.51374816894531 C 87.69539642333984 72.51373291015625 83.36439514160156 80 76.44325256347656 80 L 15.55673980712891 80 C 8.635597229003906 80 4.304595947265625 72.51373291015625 7.754585266113281 66.51374816894531 L 38.19783782958984 13.56896209716797 C 39.92811584472656 10.55979156494141 42.96405792236328 9.055206298828125 46 9.055206298828125 Z" stroke="none" fill="#d47900"/>
    </g>
    <g id="Polygon_19" data-name="Polygon 19" transform="translate(548.757 707.189) rotate(45)" fill="#fff" opacity="0.5">
      <path d="M 76.44325256347656 78.50000762939453 L 15.55674934387207 78.50000762939453 C 12.84812545776367 78.50000762939453 10.42125511169434 77.10027313232422 9.06486701965332 74.7557373046875 C 7.708490371704102 72.41117858886719 7.704784393310547 69.60959625244141 9.054948806762695 67.26146697998047 L 39.49820709228516 14.31667518615723 C 40.85250091552734 11.96136951446533 43.28307723999023 10.55521678924561 45.99999618530273 10.55521678924561 C 48.71691513061523 10.55521678924561 51.14749145507813 11.96136951446533 52.50178527832031 14.31667518615723 L 82.94504547119141 67.26146697998047 C 84.29521942138672 69.60959625244141 84.29151153564453 72.41119384765625 82.93512725830078 74.7557373046875 C 81.57875061035156 77.10027313232422 79.15187835693359 78.50000762939453 76.44325256347656 78.50000762939453 Z" stroke="none"/>
      <path d="M 45.99999618530273 12.05520629882813 C 43.82646179199219 12.05520629882813 41.88199615478516 13.18012237548828 40.79855728149414 15.06437683105469 L 10.35530090332031 68.00916290283203 C 9.275169372558594 69.88767242431641 9.278129577636719 72.12895202636719 10.36325073242188 74.00459289550781 C 11.44835662841797 75.88021850585938 13.38984680175781 77 15.55673980712891 77 L 76.44325256347656 77 C 78.61014556884766 77 80.5516357421875 75.88021850585938 81.63674163818359 74.00459289550781 C 82.72186279296875 72.12895202636719 82.72482299804688 69.88767242431641 81.64469146728516 68.00916290283203 L 51.20143508911133 15.06437683105469 C 50.11799621582031 13.18012237548828 48.17353057861328 12.05520629882813 45.99999618530273 12.05520629882813 M 46 9.055206298828125 C 49.03594207763672 9.055206298828125 52.07188415527344 10.55979156494141 53.80215454101563 13.56896209716797 L 84.24540710449219 66.51374816894531 C 87.69539642333984 72.51373291015625 83.36439514160156 80 76.44325256347656 80 L 15.55673980712891 80 C 8.635597229003906 80 4.304595947265625 72.51373291015625 7.754585266113281 66.51374816894531 L 38.19783782958984 13.56896209716797 C 39.92811584472656 10.55979156494141 42.96405792236328 9.055206298828125 46 9.055206298828125 Z" stroke="none" fill="#00bcd4"/>
    </g>
    <g id="Polygon_13" data-name="Polygon 13" transform="matrix(0.966, -0.259, 0.259, 0.966, 736.215, 785.269)" fill="#fff" opacity="0.5">
      <path d="M 76.44325256347656 78.50000762939453 L 15.55674934387207 78.50000762939453 C 12.84812545776367 78.50000762939453 10.42125511169434 77.10027313232422 9.06486701965332 74.7557373046875 C 7.708490371704102 72.41117858886719 7.704784393310547 69.60959625244141 9.054948806762695 67.26146697998047 L 39.49820709228516 14.31667518615723 C 40.85250091552734 11.96136951446533 43.28307723999023 10.55521678924561 45.99999618530273 10.55521678924561 C 48.71691513061523 10.55521678924561 51.14749145507813 11.96136951446533 52.50178527832031 14.31667518615723 L 82.94504547119141 67.26146697998047 C 84.29521942138672 69.60959625244141 84.29151153564453 72.41119384765625 82.93512725830078 74.7557373046875 C 81.57875061035156 77.10027313232422 79.15187835693359 78.50000762939453 76.44325256347656 78.50000762939453 Z" stroke="none"/>
      <path d="M 45.99999618530273 12.05520629882813 C 43.82646179199219 12.05520629882813 41.88199615478516 13.18012237548828 40.79855728149414 15.06437683105469 L 10.35530090332031 68.00916290283203 C 9.275169372558594 69.88767242431641 9.278129577636719 72.12895202636719 10.36325073242188 74.00459289550781 C 11.44835662841797 75.88021850585938 13.38984680175781 77 15.55673980712891 77 L 76.44325256347656 77 C 78.61014556884766 77 80.5516357421875 75.88021850585938 81.63674163818359 74.00459289550781 C 82.72186279296875 72.12895202636719 82.72482299804688 69.88767242431641 81.64469146728516 68.00916290283203 L 51.20143508911133 15.06437683105469 C 50.11799621582031 13.18012237548828 48.17353057861328 12.05520629882813 45.99999618530273 12.05520629882813 M 46 9.055206298828125 C 49.03594207763672 9.055206298828125 52.07188415527344 10.55979156494141 53.80215454101563 13.56896209716797 L 84.24540710449219 66.51374816894531 C 87.69539642333984 72.51373291015625 83.36439514160156 80 76.44325256347656 80 L 15.55673980712891 80 C 8.635597229003906 80 4.304595947265625 72.51373291015625 7.754585266113281 66.51374816894531 L 38.19783782958984 13.56896209716797 C 39.92811584472656 10.55979156494141 42.96405792236328 9.055206298828125 46 9.055206298828125 Z" stroke="none" fill="#02d400"/>
    </g>
    <g id="Polygon_16" data-name="Polygon 16" transform="matrix(0.966, -0.259, 0.259, 0.966, 1577.215, 809.269)" fill="#fff" opacity="0.5">
      <path d="M 76.44325256347656 78.50000762939453 L 15.55674934387207 78.50000762939453 C 12.84812545776367 78.50000762939453 10.42125511169434 77.10027313232422 9.06486701965332 74.7557373046875 C 7.708490371704102 72.41117858886719 7.704784393310547 69.60959625244141 9.054948806762695 67.26146697998047 L 39.49820709228516 14.31667518615723 C 40.85250091552734 11.96136951446533 43.28307723999023 10.55521678924561 45.99999618530273 10.55521678924561 C 48.71691513061523 10.55521678924561 51.14749145507813 11.96136951446533 52.50178527832031 14.31667518615723 L 82.94504547119141 67.26146697998047 C 84.29521942138672 69.60959625244141 84.29151153564453 72.41119384765625 82.93512725830078 74.7557373046875 C 81.57875061035156 77.10027313232422 79.15187835693359 78.50000762939453 76.44325256347656 78.50000762939453 Z" stroke="none"/>
      <path d="M 45.99999618530273 12.05520629882813 C 43.82646179199219 12.05520629882813 41.88199615478516 13.18012237548828 40.79855728149414 15.06437683105469 L 10.35530090332031 68.00916290283203 C 9.275169372558594 69.88767242431641 9.278129577636719 72.12895202636719 10.36325073242188 74.00459289550781 C 11.44835662841797 75.88021850585938 13.38984680175781 77 15.55673980712891 77 L 76.44325256347656 77 C 78.61014556884766 77 80.5516357421875 75.88021850585938 81.63674163818359 74.00459289550781 C 82.72186279296875 72.12895202636719 82.72482299804688 69.88767242431641 81.64469146728516 68.00916290283203 L 51.20143508911133 15.06437683105469 C 50.11799621582031 13.18012237548828 48.17353057861328 12.05520629882813 45.99999618530273 12.05520629882813 M 46 9.055206298828125 C 49.03594207763672 9.055206298828125 52.07188415527344 10.55979156494141 53.80215454101563 13.56896209716797 L 84.24540710449219 66.51374816894531 C 87.69539642333984 72.51373291015625 83.36439514160156 80 76.44325256347656 80 L 15.55673980712891 80 C 8.635597229003906 80 4.304595947265625 72.51373291015625 7.754585266113281 66.51374816894531 L 38.19783782958984 13.56896209716797 C 39.92811584472656 10.55979156494141 42.96405792236328 9.055206298828125 46 9.055206298828125 Z" stroke="none" fill="#00bcd4"/>
    </g>
    <g id="Polygon_12" data-name="Polygon 12" transform="matrix(0.438, -0.899, 0.899, 0.438, 53.457, 945.329)" fill="#fff" opacity="0.36">
      <path d="M 56.61137008666992 62.50000381469727 L 15.38862991333008 62.50000381469727 C 12.6947603225708 62.50000381469727 10.27455043792725 61.11172485351563 8.914560317993164 58.78635406494141 C 7.554570198059082 56.46097183227539 7.531109809875488 53.67095184326172 8.851810455322266 51.32303237915039 L 29.46318054199219 14.68060302734375 C 30.80973052978516 12.28673267364502 33.25339889526367 10.85756301879883 36 10.85756301879883 C 38.74660110473633 10.85756301879883 41.19026947021484 12.28673267364502 42.53681945800781 14.68060302734375 L 63.14818954467773 51.32303237915039 C 64.46888732910156 53.67094421386719 64.44542694091797 56.46096420288086 63.08544921875 58.78634262084961 C 61.72546005249023 61.11172485351563 59.30524063110352 62.50000381469727 56.61137008666992 62.50000381469727 Z" stroke="none"/>
      <path d="M 36 12.35755157470703 C 33.8027229309082 12.35755157470703 31.8477897644043 13.50089645385742 30.77054595947266 15.41599655151367 L 10.1591682434082 52.05844116210938 C 9.102611541748047 53.93675994873047 9.121376037597656 56.16877365112305 10.20936584472656 58.02906036376953 C 11.29735565185547 59.88937377929688 13.2335205078125 60.99999618530273 15.38862228393555 60.99999618530273 L 56.61137771606445 60.99999618530273 C 58.7664680480957 60.99999618530273 60.70264434814453 59.88937377929688 61.79063415527344 58.02907180786133 C 62.87862396240234 56.16877365112305 62.89737701416016 53.93675994873047 61.8408203125 52.05842590332031 L 41.22945404052734 15.41598510742188 C 40.1522102355957 13.50089645385742 38.1972770690918 12.35755157470703 36 12.35755157470703 M 36 9.357555389404297 C 39.06190490722656 9.357555389404297 42.12380981445313 10.88677215576172 43.84417724609375 13.94520568847656 L 64.45554351806641 50.58765029907227 C 67.83023071289063 56.58708190917969 63.49481201171875 63.99999618530273 56.61137771606445 63.99999618530273 L 15.38862228393555 63.99999618530273 C 8.50518798828125 63.99999618530273 4.169754028320313 56.58708190917969 7.544441223144531 50.58765029907227 L 28.15582275390625 13.94520568847656 C 29.87619018554688 10.88677215576172 32.93809509277344 9.357555389404297 36 9.357555389404297 Z" stroke="none" fill="#008ba3"/>
    </g>
    <g id="Polygon_15" data-name="Polygon 15" transform="matrix(0.966, -0.259, 0.259, 0.966, 624.944, 938.408)" fill="#fff" opacity="0.36">
      <path d="M 56.61137008666992 62.50000381469727 L 15.38862991333008 62.50000381469727 C 12.6947603225708 62.50000381469727 10.27455043792725 61.11172485351563 8.914560317993164 58.78635406494141 C 7.554570198059082 56.46097183227539 7.531109809875488 53.67095184326172 8.851810455322266 51.32303237915039 L 29.46318054199219 14.68060302734375 C 30.80973052978516 12.28673267364502 33.25339889526367 10.85756301879883 36 10.85756301879883 C 38.74660110473633 10.85756301879883 41.19026947021484 12.28673267364502 42.53681945800781 14.68060302734375 L 63.14818954467773 51.32303237915039 C 64.46888732910156 53.67094421386719 64.44542694091797 56.46096420288086 63.08544921875 58.78634262084961 C 61.72546005249023 61.11172485351563 59.30524063110352 62.50000381469727 56.61137008666992 62.50000381469727 Z" stroke="none"/>
      <path d="M 36 12.35755157470703 C 33.8027229309082 12.35755157470703 31.8477897644043 13.50089645385742 30.77054595947266 15.41599655151367 L 10.1591682434082 52.05844116210938 C 9.102611541748047 53.93675994873047 9.121376037597656 56.16877365112305 10.20936584472656 58.02906036376953 C 11.29735565185547 59.88937377929688 13.2335205078125 60.99999618530273 15.38862228393555 60.99999618530273 L 56.61137771606445 60.99999618530273 C 58.7664680480957 60.99999618530273 60.70264434814453 59.88937377929688 61.79063415527344 58.02907180786133 C 62.87862396240234 56.16877365112305 62.89737701416016 53.93675994873047 61.8408203125 52.05842590332031 L 41.22945404052734 15.41598510742188 C 40.1522102355957 13.50089645385742 38.1972770690918 12.35755157470703 36 12.35755157470703 M 36 9.357555389404297 C 39.06190490722656 9.357555389404297 42.12380981445313 10.88677215576172 43.84417724609375 13.94520568847656 L 64.45554351806641 50.58765029907227 C 67.83023071289063 56.58708190917969 63.49481201171875 63.99999618530273 56.61137771606445 63.99999618530273 L 15.38862228393555 63.99999618530273 C 8.50518798828125 63.99999618530273 4.169754028320313 56.58708190917969 7.544441223144531 50.58765029907227 L 28.15582275390625 13.94520568847656 C 29.87619018554688 10.88677215576172 32.93809509277344 9.357555389404297 36 9.357555389404297 Z" stroke="none" fill="#008ba3"/>
    </g>
    <g id="Polygon_18" data-name="Polygon 18" transform="matrix(0.966, -0.259, 0.259, 0.966, 1522.944, 919.408)" fill="#fff" opacity="0.36">
      <path d="M 56.61137008666992 62.50000381469727 L 15.38862991333008 62.50000381469727 C 12.6947603225708 62.50000381469727 10.27455043792725 61.11172485351563 8.914560317993164 58.78635406494141 C 7.554570198059082 56.46097183227539 7.531109809875488 53.67095184326172 8.851810455322266 51.32303237915039 L 29.46318054199219 14.68060302734375 C 30.80973052978516 12.28673267364502 33.25339889526367 10.85756301879883 36 10.85756301879883 C 38.74660110473633 10.85756301879883 41.19026947021484 12.28673267364502 42.53681945800781 14.68060302734375 L 63.14818954467773 51.32303237915039 C 64.46888732910156 53.67094421386719 64.44542694091797 56.46096420288086 63.08544921875 58.78634262084961 C 61.72546005249023 61.11172485351563 59.30524063110352 62.50000381469727 56.61137008666992 62.50000381469727 Z" stroke="none"/>
      <path d="M 36 12.35755157470703 C 33.8027229309082 12.35755157470703 31.8477897644043 13.50089645385742 30.77054595947266 15.41599655151367 L 10.1591682434082 52.05844116210938 C 9.102611541748047 53.93675994873047 9.121376037597656 56.16877365112305 10.20936584472656 58.02906036376953 C 11.29735565185547 59.88937377929688 13.2335205078125 60.99999618530273 15.38862228393555 60.99999618530273 L 56.61137771606445 60.99999618530273 C 58.7664680480957 60.99999618530273 60.70264434814453 59.88937377929688 61.79063415527344 58.02907180786133 C 62.87862396240234 56.16877365112305 62.89737701416016 53.93675994873047 61.8408203125 52.05842590332031 L 41.22945404052734 15.41598510742188 C 40.1522102355957 13.50089645385742 38.1972770690918 12.35755157470703 36 12.35755157470703 M 36 9.357555389404297 C 39.06190490722656 9.357555389404297 42.12380981445313 10.88677215576172 43.84417724609375 13.94520568847656 L 64.45554351806641 50.58765029907227 C 67.83023071289063 56.58708190917969 63.49481201171875 63.99999618530273 56.61137771606445 63.99999618530273 L 15.38862228393555 63.99999618530273 C 8.50518798828125 63.99999618530273 4.169754028320313 56.58708190917969 7.544441223144531 50.58765029907227 L 28.15582275390625 13.94520568847656 C 29.87619018554688 10.88677215576172 32.93809509277344 9.357555389404297 36 9.357555389404297 Z" stroke="none" fill="#008ba3"/>
    </g>
    <g id="Ellipse_22" data-name="Ellipse 22" transform="translate(344 812)" fill="#fff" stroke="#008ba3" stroke-width="3" opacity="0.5">
      <circle cx="41" cy="41" r="41" stroke="none"/>
      <circle cx="41" cy="41" r="39.5" fill="none"/>
    </g>
    <g id="Ellipse_23" data-name="Ellipse 23" transform="translate(1114 878)" fill="#fff" stroke="#008ba3" stroke-width="3" opacity="0.5">
      <circle cx="41" cy="41" r="41" stroke="none"/>
      <circle cx="41" cy="41" r="39.5" fill="none"/>
    </g>
    <g id="Ellipse_24" data-name="Ellipse 24" transform="translate(1882 734)" fill="#fff" stroke="#008ba3" stroke-width="3" opacity="0.5">
      <circle cx="41" cy="41" r="41" stroke="none"/>
      <circle cx="41" cy="41" r="39.5" fill="none"/>
    </g>
    <g id="Rectangle_2700" data-name="Rectangle 2700" transform="matrix(0.891, -0.454, 0.454, 0.891, 317.375, 949.075)" fill="#fff" stroke="#00bcd4" stroke-width="2" opacity="0.5">
      <rect width="50" height="50" rx="12" stroke="none"/>
      <rect x="1" y="1" width="48" height="48" rx="11" fill="none"/>
    </g>
    <g id="Rectangle_2701" data-name="Rectangle 2701" transform="matrix(0.891, -0.454, 0.454, 0.891, 1215.375, 794.075)" fill="#fff" stroke="#00bcd4" stroke-width="2" opacity="0.5">
      <rect width="50" height="50" rx="12" stroke="none"/>
      <rect x="1" y="1" width="48" height="48" rx="11" fill="none"/>
    </g>
    <g id="Rectangle_2704" data-name="Rectangle 2704" transform="matrix(0.891, -0.454, 0.454, 0.891, 918.375, 882.075)" fill="#fff" stroke="#d4cd00" stroke-width="2" opacity="0.5">
      <rect width="50" height="50" rx="12" stroke="none"/>
      <rect x="1" y="1" width="48" height="48" rx="11" fill="none"/>
    </g>
    <g id="Rectangle_2703" data-name="Rectangle 2703" transform="matrix(0.891, -0.454, 0.454, 0.891, 558.375, 867.075)" fill="#fff" stroke="#d41500" stroke-width="2" opacity="0.5">
      <rect width="50" height="50" rx="12" stroke="none"/>
      <rect x="1" y="1" width="48" height="48" rx="11" fill="none"/>
    </g>
    <g id="Rectangle_2702" data-name="Rectangle 2702" transform="matrix(0.891, -0.454, 0.454, 0.891, 1840.375, 890.075)" fill="#fff" stroke="#00bcd4" stroke-width="2" opacity="0.5">
      <rect width="50" height="50" rx="12" stroke="none"/>
      <rect x="1" y="1" width="48" height="48" rx="11" fill="none"/>
    </g>
  </g>
</svg>
