<svg version="1.2" baseProfile="tiny-ps" xmlns="http://www.w3.org/2000/svg" viewBox="0 0 840 1332" width="840" height="1332">
	<title>Character 2</title>
	<style>
		tspan { white-space:pre }
		.shp0 { fill: #fafafa } 
		.shp1 { fill: #e0e0e0 } 
		.shp2 { fill: #f0f0f0 } 
		.shp3 { opacity: 0.102;fill: #ffffff } 
		.shp4 { fill: #ffffff } 
		.shp5 { fill: #ebebeb } 
		.shp6 { fill: #e6e6e6 } 
		.shp7 { fill: #407bff } 
		.shp8 { opacity: 0.102;fill: #000000 } 
		.shp9 { opacity: 0.702;fill: #ffffff } 
		.shp10 { opacity: 0.502;fill: #ffffff } 
		.shp11 { fill: #000000 } 
		.shp12 { fill: #263238 } 
		.shp13 { fill: #ffc3bd } 
		.shp14 { opacity: 0.2;fill: #000000 } 
		.shp15 { opacity: 0.8;fill: #ffffff } 
		.shp16 { opacity: 0.6;fill: #000000 } 
		.shp17 { opacity: 0.502;fill: #000000 } 
		.shp18 { opacity: 0.302;fill: #000000 } 
		.shp19 { fill: #ed847e } 
		.shp20 { fill: #2e353a } 
		.shp21 { fill: #de5753 } 
		.shp22 { opacity: 0.902;fill: #ffffff } 
	</style>
	<g id="Character 2">
		<g id="&lt;Group&gt;">
			<g id="&lt;Group&gt;">
				<g id="Folder 1">
					<path id="&lt;Path&gt;" class="shp0" d="M826.83 967.37L551.96 967.37L551.96 34.92L826.83 34.92L826.83 967.37Z" />
					<path id="&lt;Path&gt;" class="shp1" d="M490.19 364.98L490.19 959.21L833.84 959.21L833.84 364.98L490.19 364.98Z" />
					<path id="&lt;Path&gt;" class="shp1" d="M556.18 281.94L556.18 430.98L583.28 430.98L740.75 430.98L767.84 430.98L767.84 281.94L556.18 281.94Z" />
					<path id="&lt;Path&gt;" class="shp0" d="M556.18 430.98L512.19 430.98L512.19 386.98L556.18 386.98L556.18 430.98Z" />
					<path id="&lt;Path&gt;" class="shp0" d="M641.4 430.98L597.41 430.98L597.41 386.98L641.4 386.98L641.4 430.98Z" />
					<path id="&lt;Path&gt;" class="shp0" d="M726.62 430.98L682.63 430.98L682.63 386.98L726.62 386.98L726.62 430.98Z" />
					<path id="&lt;Path&gt;" class="shp2" d="M811.84 430.98L767.84 430.98L767.84 386.98L811.84 386.98L811.84 430.98Z" />
					<path id="&lt;Path&gt;" class="shp2" d="M556.18 510.92L512.19 510.92L512.19 466.92L556.18 466.92L556.18 510.92Z" />
					<path id="&lt;Path&gt;" class="shp2" d="M641.4 510.92L597.41 510.92L597.41 466.92L641.4 466.92L641.4 510.92Z" />
					<path id="&lt;Path&gt;" class="shp0" d="M726.62 510.92L682.63 510.92L682.63 466.92L726.62 466.92L726.62 510.92Z" />
					<path id="&lt;Path&gt;" class="shp0" d="M811.84 510.92L767.84 510.92L767.84 466.92L811.84 466.92L811.84 510.92Z" />
					<path id="&lt;Path&gt;" class="shp2" d="M556.18 590.86L512.19 590.86L512.19 546.87L556.18 546.87L556.18 590.86Z" />
					<path id="&lt;Path&gt;" class="shp0" d="M641.4 590.86L597.41 590.86L597.41 546.87L641.4 546.87L641.4 590.86Z" />
					<path id="&lt;Path&gt;" class="shp0" d="M726.62 590.86L682.63 590.86L682.63 546.87L726.62 546.87L726.62 590.86Z" />
					<path id="&lt;Path&gt;" class="shp0" d="M641.4 361.88L597.41 361.88L597.41 317.89L641.4 317.89L641.4 361.88Z" />
					<path id="&lt;Path&gt;" class="shp2" d="M726.62 361.88L682.63 361.88L682.63 317.89L726.62 317.89L726.62 361.88Z" />
					<path id="&lt;Path&gt;" class="shp2" d="M811.84 590.86L767.84 590.86L767.84 546.87L811.84 546.87L811.84 590.86Z" />
					<path id="&lt;Path&gt;" class="shp0" d="M556.18 670.8L512.19 670.8L512.19 626.81L556.18 626.81L556.18 670.8Z" />
					<path id="&lt;Path&gt;" class="shp2" d="M641.4 670.8L597.41 670.8L597.41 626.81L641.4 626.81L641.4 670.8Z" />
					<path id="&lt;Path&gt;" class="shp2" d="M726.62 670.8L682.63 670.8L682.63 626.81L726.62 626.81L726.62 670.8Z" />
					<path id="&lt;Path&gt;" class="shp0" d="M811.84 670.8L767.84 670.8L767.84 626.81L811.84 626.81L811.84 670.8Z" />
					<path id="&lt;Path&gt;" class="shp2" d="M556.18 750.75L512.19 750.75L512.19 706.75L556.18 706.75L556.18 750.75Z" />
					<path id="&lt;Path&gt;" class="shp0" d="M641.4 750.75L597.41 750.75L597.41 706.75L641.4 706.75L641.4 750.75Z" />
					<path id="&lt;Path&gt;" class="shp0" d="M726.62 750.75L682.63 750.75L682.63 706.75L726.62 706.75L726.62 750.75Z" />
					<path id="&lt;Path&gt;" class="shp2" d="M811.84 750.75L767.84 750.75L767.84 706.75L811.84 706.75L811.84 750.75Z" />
					<path id="&lt;Path&gt;" class="shp2" d="M556.18 830.69L512.19 830.69L512.19 786.69L556.18 786.69L556.18 830.69Z" />
					<path id="&lt;Path&gt;" class="shp0" d="M641.4 830.69L597.41 830.69L597.41 786.69L641.4 786.69L641.4 830.69Z" />
					<path id="&lt;Path&gt;" class="shp2" d="M726.62 830.69L682.63 830.69L682.63 786.69L726.62 786.69L726.62 830.69Z" />
					<path id="&lt;Path&gt;" class="shp0" d="M811.84 830.69L767.84 830.69L767.84 786.69L811.84 786.69L811.84 830.69Z" />
					<path id="&lt;Path&gt;" class="shp0" d="M556.18 910.63L512.19 910.63L512.19 866.63L556.18 866.63L556.18 910.63Z" />
					<path id="&lt;Path&gt;" class="shp0" d="M641.4 910.63L597.41 910.63L597.41 866.63L641.4 866.63L641.4 910.63Z" />
					<path id="&lt;Path&gt;" class="shp2" d="M726.62 910.63L682.63 910.63L682.63 866.63L726.62 866.63L726.62 910.63Z" />
					<path id="&lt;Path&gt;" class="shp2" d="M811.84 910.63L767.84 910.63L767.84 866.63L811.84 866.63L811.84 910.63Z" />
					<path id="&lt;Path&gt;" class="shp3" d="M826.29 967.37L551.41 967.37L551.41 34.92L826.29 34.92L826.29 967.37Z" />
					<path id="&lt;Path&gt;" class="shp4" d="M799.4 34.92L711.76 34.92L615.89 967.37L703.52 967.37L799.4 34.92Z" />
					<path id="&lt;Path&gt;" class="shp1" d="M829.14 46.74L549.66 46.74L549.66 23.1L829.14 23.1L829.14 46.74Z" />
					<path id="&lt;Path&gt;" class="shp5" d="M829.14 982.86L549.66 982.86L549.66 959.21L829.14 959.21L829.14 982.86Z" />
					<path id="&lt;Compound Path&gt;" fill-rule="evenodd" class="shp5" d="M840 1003.02L537.01 1003.02L537.01 0L840 0L840 1003.02ZM560.11 979.92L816.9 979.92L816.9 23.1L560.11 23.1L560.11 979.92Z" />
					<path id="&lt;Path&gt;" class="shp0" d="M527.03 967.37L252.15 967.37L252.15 34.92L527.03 34.92L527.03 967.37Z" />
					<path id="&lt;Path&gt;" class="shp6" d="M271.18 674.01L271.18 962.44L506.22 962.44L506.22 674.01L271.18 674.01Z" />
					<path id="&lt;Path&gt;" class="shp6" d="M485.76 706L431.09 706L416.04 706L400.99 706L400.99 736.09L416.04 736.09L431.09 736.09L485.76 736.09L485.76 706Z" />
					<path id="&lt;Path&gt;" class="shp0" d="M485.76 764.28L431.09 764.28L416.04 764.28L400.99 764.28L400.99 794.38L416.04 794.38L431.09 794.38L485.76 794.38L485.76 764.28Z" />
					<path id="&lt;Path&gt;" class="shp6" d="M485.76 822.57L431.09 822.57L416.04 822.57L400.99 822.57L400.99 852.66L416.04 852.66L431.09 852.66L485.76 852.66L485.76 822.57Z" />
					<path id="&lt;Path&gt;" class="shp0" d="M485.76 880.86L431.09 880.86L407.83 880.86L400.99 880.86L400.99 910.95L407.83 910.95L431.09 910.95L485.76 910.95L485.76 880.86Z" />
					<path id="&lt;Path&gt;" class="shp0" d="M376.41 706L321.73 706L306.69 706L291.64 706L291.64 736.09L306.69 736.09L321.73 736.09L376.41 736.09L376.41 706Z" />
					<path id="&lt;Path&gt;" class="shp0" d="M376.41 764.28L321.73 764.28L300.52 764.28L291.64 764.28L291.64 794.38L300.52 794.38L321.73 794.38L376.41 794.38L376.41 764.28Z" />
					<path id="&lt;Path&gt;" class="shp6" d="M376.41 822.57L321.73 822.57L306.69 822.57L291.64 822.57L291.64 852.66L306.69 852.66L321.73 852.66L376.41 852.66L376.41 822.57Z" />
					<path id="&lt;Path&gt;" class="shp0" d="M376.41 880.86L321.73 880.86L306.69 880.86L291.64 880.86L291.64 910.95L306.69 910.95L321.73 910.95L376.41 910.95L376.41 880.86Z" />
					<path id="&lt;Path&gt;" class="shp3" d="M526.14 967.37L251.26 967.37L251.26 34.92L526.14 34.92L526.14 967.37Z" />
					<path id="&lt;Path&gt;" class="shp4" d="M499.59 34.92L411.96 34.92L316.09 967.37L403.72 967.37L499.59 34.92Z" />
					<path id="&lt;Path&gt;" class="shp1" d="M529.33 46.74L249.85 46.74L249.85 23.1L529.33 23.1L529.33 46.74Z" />
					<path id="&lt;Path&gt;" class="shp5" d="M529.33 982.86L249.85 982.86L249.85 959.21L529.33 959.21L529.33 982.86Z" />
					<path id="&lt;Compound Path&gt;" fill-rule="evenodd" class="shp5" d="M540.2 1003.02L237.21 1003.02L237.21 0L540.2 0L540.2 1003.02ZM260.3 979.92L517.1 979.92L517.1 23.1L260.3 23.1L260.3 979.92Z" />
					<path id="&lt;Path&gt;" class="shp7" d="M729.2 1159.57L748.79 847.65C756.07 731.79 664.06 633.83 547.98 633.83L547.98 633.83C441.25 633.83 353.09 717.15 347.09 823.71L326.54 1188.03L698.9 1188.03C714.93 1188.03 728.19 1175.57 729.2 1159.57Z" />
					<path id="&lt;Path&gt;" class="shp8" d="M729.91 1148.27L748.79 847.65C756.07 731.79 664.06 633.83 547.98 633.83L547.98 633.83C441.25 633.83 353.09 717.15 347.09 823.71L326.54 1188.03L687.58 1188.03C709.97 1188.03 728.51 1170.62 729.91 1148.27Z" />
					<path id="&lt;Path&gt;" class="shp7" d="M668.77 1188.03L690.14 847.65C697.42 731.79 605.42 633.83 489.33 633.83L489.33 633.83C382.61 633.83 294.45 717.15 288.44 823.71L267.9 1188.03L668.77 1188.03Z" />
					<path id="&lt;Path&gt;" class="shp7" d="M675.18 1246.62L680.32 1246.62C682.94 1246.62 685.38 1244.41 685.81 1241.4L693.4 1188.04L662.1 1188.04L669.69 1241.4C670.11 1244.41 672.55 1246.62 675.18 1246.62Z" />
					<path id="&lt;Path&gt;" class="shp9" d="M675.18 1246.62L680.32 1246.62C682.94 1246.62 685.38 1244.41 685.81 1241.4L693.4 1188.04L662.1 1188.04L669.69 1241.4C670.11 1244.41 672.55 1246.62 675.18 1246.62Z" />
					<path id="&lt;Path&gt;" class="shp7" d="M171.16 1246.62L175.83 1246.62C178.2 1246.62 180.41 1244.41 180.8 1241.4L187.68 1188.04L159.31 1188.04L166.19 1241.4C166.58 1244.41 168.79 1246.62 171.16 1246.62Z" />
					<path id="&lt;Path&gt;" class="shp10" d="M171.16 1246.62L175.83 1246.62C178.2 1246.62 180.41 1244.41 180.8 1241.4L187.68 1188.04L159.31 1188.04L166.19 1241.4C166.58 1244.41 168.79 1246.62 171.16 1246.62Z" />
					<path id="&lt;Path&gt;" class="shp7" d="M316.28 1246.62L320.94 1246.62C323.31 1246.62 325.53 1244.41 325.91 1241.4L332.79 1188.04L304.42 1188.04L311.3 1241.4C311.69 1244.41 313.9 1246.62 316.28 1246.62Z" />
					<path id="&lt;Path&gt;" class="shp9" d="M316.28 1246.62L320.94 1246.62C323.31 1246.62 325.53 1244.41 325.91 1241.4L332.79 1188.04L304.42 1188.04L311.3 1241.4C311.69 1244.41 313.9 1246.62 316.28 1246.62Z" />
					<path id="&lt;Path&gt;" class="shp7" d="M518.95 1246.62L524.09 1246.62C526.71 1246.62 529.15 1244.41 529.58 1241.4L537.17 1188.04L505.87 1188.04L513.46 1241.4C513.89 1244.41 516.33 1246.62 518.95 1246.62Z" />
					<path id="&lt;Path&gt;" class="shp10" d="M518.95 1246.62L524.09 1246.62C526.71 1246.62 529.15 1244.41 529.58 1241.4L537.17 1188.04L505.87 1188.04L513.46 1241.4C513.89 1244.41 516.33 1246.62 518.95 1246.62Z" />
					<path id="&lt;Path&gt;" class="shp7" d="M349.09 1059.48L211.92 1059.48L202.83 927.22L200.9 898.83L200.9 898.79L200 885.73C199.74 882.23 199.29 878.83 198.66 875.5C198.51 874.76 198.33 873.98 198.18 873.24C198.1 872.66 197.95 872.13 197.77 871.59C193.86 857.71 186.56 845.46 176.87 836.1C165.29 824.88 150.43 817.77 134.04 816.79L263.06 816.79C264.47 816.7 265.89 816.66 267.3 816.66C285.22 816.66 301.57 824.02 314.05 836.1C323.73 845.46 331.03 857.71 334.94 871.59C335.13 872.13 335.28 872.66 335.35 873.24C336.24 877.26 336.88 881.41 337.17 885.73L338.07 898.79L338.07 898.83L349.09 1059.48Z" />
					<path id="&lt;Path&gt;" class="shp8" d="M349.09 1059.48L211.92 1059.48L202.83 927.22L200.9 898.83L200.9 898.79L200 885.73C199.74 882.23 199.29 878.83 198.66 875.5C198.51 874.76 198.33 873.98 198.18 873.24C198.1 872.66 197.95 872.13 197.77 871.59C193.86 857.71 186.56 845.46 176.87 836.1C165.29 824.88 150.43 817.77 134.04 816.79L263.06 816.79C264.47 816.7 265.89 816.66 267.3 816.66C285.22 816.66 301.57 824.02 314.05 836.1C323.73 845.46 331.03 857.71 334.94 871.59C335.13 872.13 335.28 872.66 335.35 873.24C336.24 877.26 336.88 881.41 337.17 885.73L338.07 898.79L338.07 898.83L349.09 1059.48Z" />
					<path id="&lt;Path&gt;" class="shp11" d="M457.81 989.03L512.91 989.03C526.31 989.03 537.17 997.51 537.17 1007.97L537.17 1040.55C537.17 1051.01 526.31 1059.49 512.91 1059.49L457.81 1059.49L457.81 989.03Z" />
					<path id="&lt;Path&gt;" class="shp7" d="M232.86 1059.49L475.47 1059.49C487.03 1059.49 496.39 1050.12 496.39 1038.56L496.39 1009.95C496.39 998.4 487.03 989.03 475.47 989.03L232.86 989.03C221.3 989.03 211.93 998.4 211.93 1009.95L211.93 1038.56C211.93 1050.12 221.3 1059.49 232.86 1059.49Z" />
					<path id="&lt;Path&gt;" class="shp7" d="M805.11 894.81C805.11 933.43 777.09 965.56 740.27 971.84L726.06 1159.81C724.83 1175.79 713.24 1188.03 699.35 1188.03L548.03 1188.03C561.92 1188.03 573.51 1175.79 574.74 1159.81L582.34 1059.48L588.96 971.84C613.44 967.65 634.03 952.08 645.04 930.72C645.78 929.36 646.44 927.92 647.05 926.48C651.41 916.79 653.79 906.11 653.79 894.81C653.79 889.34 653.21 884 652.15 878.87C651.73 876.77 651.2 874.68 650.63 872.66C647.83 863.34 643.39 854.75 637.64 847.23L637.6 847.19C630.41 837.82 621.17 830.22 610.57 824.92C600.05 819.62 588.18 816.66 575.65 816.66L726.96 816.66C734.97 816.66 742.74 817.9 750.05 820.16C754.16 821.43 758.11 823.03 761.88 824.92C772.49 830.22 781.73 837.82 788.92 847.19L788.96 847.23C799.07 860.42 805.11 876.89 805.11 894.81Z" />
					<path id="&lt;Path&gt;" class="shp8" d="M805.11 894.81C805.11 933.43 777.09 965.56 740.27 971.84L726.06 1159.81C724.83 1175.79 713.24 1188.03 699.35 1188.03L548.03 1188.03C561.92 1188.03 573.51 1175.79 574.74 1159.81L582.34 1059.48L588.96 971.84C613.44 967.65 634.03 952.08 645.04 930.72C645.78 929.36 646.44 927.92 647.05 926.48C651.41 916.79 653.79 906.11 653.79 894.81C653.79 889.34 653.21 884 652.15 878.87C651.73 876.77 651.2 874.68 650.63 872.66C647.83 863.34 643.39 854.75 637.64 847.23L637.6 847.19C630.41 837.82 621.17 830.22 610.57 824.92C600.05 819.62 588.18 816.66 575.65 816.66L726.96 816.66C734.97 816.66 742.74 817.9 750.05 820.16C754.16 821.43 758.11 823.03 761.88 824.92C772.49 830.22 781.73 837.82 788.92 847.19L788.96 847.23C799.07 860.42 805.11 876.89 805.11 894.81Z" />
					<path id="&lt;Path&gt;" class="shp7" d="M653.8 894.82C653.8 933.42 628.4 965.56 595.02 971.83L582.13 1159.8C581.02 1175.8 570.52 1188.04 557.91 1188.04L153.86 1188.04C141.28 1188.04 130.78 1175.8 129.64 1159.8L116.72 971.54C84.01 964.67 59.28 932.93 59.28 894.82C59.28 877.96 64.13 862.37 72.34 849.64C79.03 839.21 88.05 830.68 98.48 824.92C108 819.61 118.77 816.64 130.14 816.64C148.04 816.64 164.4 824.03 176.88 836.09C186.57 845.45 193.87 857.7 197.77 871.58C197.94 872.14 198.11 872.66 198.18 873.25C199.09 877.26 199.69 881.42 200 885.72L200.9 898.79L200.9 898.82L211.91 1059.47L499.86 1059.47L511.77 885.72C513.49 861.19 525.44 840.73 542.02 831.05C552.49 822.81 565.11 817.68 578.7 816.83C580.11 816.68 581.53 816.64 582.94 816.64C593.98 816.64 604.44 819.43 613.73 824.48C614.03 824.59 614.3 824.77 614.6 824.92C624.23 830.23 632.6 837.84 639.13 847.19L639.17 847.23C648.32 860.41 653.8 876.89 653.8 894.82Z" />
					<path id="&lt;Path&gt;" class="shp3" d="M493.2 1188.04L153.86 1188.04C141.28 1188.04 130.78 1175.8 129.64 1159.8L116.72 971.54C84.01 964.67 59.28 932.93 59.28 894.82C59.28 877.96 64.13 862.37 72.34 849.64C79.03 839.21 88.05 830.68 98.48 824.92C108 819.61 118.77 816.64 130.14 816.64C148.04 816.64 164.4 824.03 176.88 836.09C186.57 845.45 193.87 857.7 197.77 871.58C197.94 872.14 198.11 872.66 198.18 873.25C199.09 877.26 199.69 881.42 200 885.72L200.9 898.79L200.9 898.82L211.91 1059.47L499.86 1059.47L493.2 1188.04Z" />
					<path id="&lt;Path&gt;" class="shp12" d="M449.17 653.5C442.46 657.21 436.31 660.56 429.98 663.81C423.65 667.07 417.22 670.12 410.79 673.11C397.83 679.03 384.71 684.64 371.18 689.58C357.58 694.66 343.72 699.05 329.67 702.72C315.07 706.65 300.15 709.32 285.09 710.7L281.91 710.99L280.37 710.88C266.77 709.31 254.69 706.83 242.58 704.32C230.47 701.81 218.46 698.96 206.57 695.94C194.69 692.92 182.89 689.75 171.11 686.36C159.33 682.97 147.59 679.47 135.93 675.49L141.29 648.7C165.54 650.26 189.77 652.7 213.77 655.07L249.6 658.66C261.4 659.8 273.47 660.81 284.05 661.21L279.38 661.32C291.48 659.17 303.42 656.16 315.09 652.3C327.19 648.35 339.28 644.05 351.32 638.85C363.36 633.65 375.37 628.37 387.26 622.71C393.33 619.93 399.26 616.98 405.04 614.1C410.82 611.22 416.99 608.14 422.27 605.37L449.17 653.5Z" />
					<path id="&lt;Path&gt;" class="shp8" d="M449.17 653.5C442.46 657.21 436.31 660.56 429.98 663.81C423.65 667.07 417.22 670.12 410.79 673.11C397.83 679.03 384.71 684.64 371.18 689.58C357.58 694.66 343.72 699.05 329.67 702.72C315.07 706.65 300.15 709.32 285.09 710.7L281.91 710.99L280.37 710.88C266.77 709.31 254.69 706.83 242.58 704.32C230.47 701.81 218.46 698.96 206.57 695.94C194.69 692.92 182.89 689.75 171.11 686.36C159.33 682.97 147.59 679.47 135.93 675.49L141.29 648.7C165.54 650.26 189.77 652.7 213.77 655.07L249.6 658.66C261.4 659.8 273.47 660.81 284.05 661.21L279.38 661.32C291.48 659.17 303.42 656.16 315.09 652.3C327.19 648.35 339.28 644.05 351.32 638.85C363.36 633.65 375.37 628.37 387.26 622.71C393.33 619.93 399.26 616.98 405.04 614.1C410.82 611.22 416.99 608.14 422.27 605.37L449.17 653.5Z" />
					<path id="&lt;Path&gt;" class="shp13" d="M136.18 634.14C130.15 629.82 123.93 626.78 117.52 625.02L107.54 664.02L137.45 676.6L140.85 672.44C150.46 660.67 148.52 643.01 136.18 634.14Z" />
					<path id="&lt;Path&gt;" class="shp13" d="M107.54 664.02L117.52 625.02L89.59 609.79L81.16 637.25L107.54 664.02Z" />
					<path id="&lt;Path&gt;" class="shp14" d="M355.22 692.96L356.31 692.9L356.78 693C371.52 691.4 414.82 684.12 446.17 653.22C441.47 644.21 435.08 637.2 427.24 635.63C405.66 631.69 379.2 647.16 355.22 692.96Z" />
					<path id="&lt;Path&gt;" class="shp7" d="M380.57 894.78C417.53 794.99 393.22 703.22 397.86 652.42C400.24 626.72 419.32 605.68 444.67 600.8C469.93 595.92 501.11 590.45 530.88 586.44C533.73 586.05 536.61 585.88 539.49 585.92C571.69 586.35 597.44 612.81 597.01 645.01C595.27 745.38 578.33 828.63 546.18 894.78L468.27 894.44L380.57 894.78Z" />
					<path id="&lt;Path&gt;" class="shp15" d="M380.57 894.78C417.53 794.99 393.22 703.22 397.86 652.42C400.24 626.72 419.32 605.68 444.67 600.8C469.93 595.92 501.11 590.45 530.88 586.44C533.73 586.05 536.61 585.88 539.49 585.92C571.69 586.35 597.44 612.81 597.01 645.01C595.27 745.38 578.33 828.63 546.18 894.78L468.27 894.44L380.57 894.78Z" />
					<path id="&lt;Path&gt;" class="shp13" d="M85 1235.31L75.11 1300.25L106.5 1300.25L127.1 1235.31L85 1235.31Z" />
					<path id="&lt;Path&gt;" class="shp12" d="M71.11 1285.76L113.05 1284.78C114.52 1284.71 115.69 1285.73 115.68 1287.08L115.78 1317.87C115.58 1321.23 112.5 1324.05 108.87 1324.16C94.29 1324.27 87.35 1323.62 68.89 1324.06C49.15 1323.98 29.55 1322.69 10.2 1320.19C-4.73 1317.64 -0.7 1303.61 6.06 1303.38C36.56 1302.27 53.6 1295.91 64.54 1288.05C66.44 1286.63 68.76 1285.82 71.11 1285.76Z" />
					<path id="&lt;Path&gt;" class="shp14" d="M81.03 1261.36L85 1235.31L127.1 1235.31L116.96 1267.78L81.03 1261.36Z" />
					<path id="&lt;Path&gt;" class="shp7" d="M361.23 871.41C191.12 873.1 104.74 900.89 102.09 954.77C98.33 1032.24 89.9 1130.02 76.81 1248.13L124.94 1261.36C170.7 1144.25 194.47 1055.45 196.26 994.95C268.03 980.65 452.57 994.95 474.25 947.81C484.87 923.3 487.68 897.03 482.43 871.41L361.23 871.41Z" />
					<path id="&lt;Path&gt;" class="shp16" d="M361.23 871.41C191.12 873.1 104.74 900.89 102.09 954.77C98.33 1032.24 89.9 1130.02 76.81 1248.13L124.94 1261.36C170.7 1144.25 194.47 1055.45 196.26 994.95C268.03 980.65 452.57 994.95 474.25 947.81C484.87 923.3 487.68 897.03 482.43 871.41L361.23 871.41Z" />
					<path id="&lt;Path&gt;" class="shp13" d="M309.51 1260.41L326.54 1304.47L360.94 1304.47L349.09 1258.13L309.51 1260.41Z" />
					<path id="&lt;Path&gt;" class="shp14" d="M352.29 1270.64L345.61 1236.75L302.17 1242.15L313.28 1271.62L352.29 1270.64Z" />
					<path id="&lt;Path&gt;" class="shp12" d="M317.21 1289.88L361.11 1289.88C362.64 1289.81 363.94 1290.93 364.01 1292.37C364.01 1292.39 364.01 1292.4 364.01 1292.42L366.16 1325.33C366.16 1328.93 363.12 1331.87 359.31 1331.94C344.04 1331.69 336.7 1330.82 317.39 1330.82C305.53 1330.82 281.56 1331.98 265.14 1331.98C248.72 1331.98 249.21 1316.63 256.14 1315.34C287.36 1309.1 299.43 1300.49 310.45 1292.25C312.37 1290.78 314.75 1289.95 317.21 1289.88Z" />
					<path id="&lt;Path&gt;" class="shp7" d="M429.99 871.41C275.7 881.87 200.45 914.03 204.25 967.89C208.39 1026.84 241.36 1124.67 303.15 1261.36L349.94 1261.36C329.21 1137.3 314.14 1045.25 304.73 985.19C369.99 985.19 521.28 995.03 543 947.78C553.63 923.26 556.42 896.99 551.14 871.37L429.99 871.41Z" />
					<path id="&lt;Path&gt;" class="shp17" d="M429.99 871.41C275.7 881.87 200.45 914.03 204.25 967.89C208.39 1026.84 241.36 1124.67 303.15 1261.36L349.94 1261.36C329.21 1137.3 314.14 1045.25 304.73 985.19C369.99 985.19 521.28 995.03 543 947.78C553.63 923.26 556.42 896.99 551.14 871.37L429.99 871.41Z" />
					<path id="&lt;Path&gt;" class="shp13" d="M465.04 544.33C470.38 564.93 472.05 590.56 443.27 601.22C435.29 613.95 431.37 627.36 462.14 622.58C486.62 619.42 508.89 606.82 524.21 587.47C505.79 571.37 509.16 521.92 513.82 494.02L465.04 544.33Z" />
					<path id="&lt;Path&gt;" class="shp12" d="M461.77 581.8C435.37 586.34 413.62 606.76 401.97 630.89C390.33 655.01 387.53 682.47 387.75 709.26C387.97 736.04 391.02 762.78 390.31 789.56C389.5 820.51 382.03 842.3 371.39 871.37C371.39 878.29 381.85 882.19 390.72 883.98C409.15 843.74 421.26 805.27 419.98 761.03C419.05 728.93 418.6 692.38 423.83 660.7C428.98 629.49 466.92 587.74 465.11 582.05L461.77 581.8Z" />
					<path id="&lt;Path&gt;" class="shp18" d="M487.52 559.43C481.28 563.53 473.87 565.72 468.01 564.15C468.06 559.15 467.69 554.14 466.92 549.19L498.85 522.96C499.56 526.37 500.01 529.82 500.2 533.28C500.77 543.6 496.16 553.75 487.52 559.43Z" />
					<path id="&lt;Path&gt;" class="shp13" d="M439.77 422.51C405.99 441.58 405.64 495.56 416.05 526.76C419.02 535.97 424.76 544.03 432.5 549.84C453.15 565.34 482.47 561.16 497.97 540.5C514.47 519.62 512.1 498.55 511.29 462.32C510.41 426.13 473.55 403.44 439.77 422.51Z" />
					<path id="&lt;Path&gt;" class="shp14" d="M450.64 519.49C439.75 524.15 427.82 530.21 416.83 528.9C419.96 537.21 425.37 544.49 432.5 549.84C453.15 565.34 482.47 561.16 497.97 540.5C511.47 523.42 515.73 511.84 511.76 480.67C490.69 505.43 473.91 509.53 450.64 519.49Z" />
					<path id="&lt;Path&gt;" class="shp12" d="M483.28 434.52C476.01 445.69 477.51 461.79 486.71 471.44C489.76 474.63 493.49 477.13 496.44 480.42C500.97 485.48 503.4 492.36 503.06 499.15C504.21 490.31 512.46 482.96 521.37 482.84C516.79 496.99 512.21 511.14 507.63 525.29C525.79 517.08 539.01 498.83 541.14 479.01C544.07 451.75 510.27 393.04 483.28 434.52Z" />
					<path id="&lt;Path&gt;" class="shp12" d="M404.51 436.58C402.09 439.57 399.81 442.85 399.13 446.63C398.45 450.41 399.8 454.8 403.19 456.61C405.94 458.08 409.28 457.59 412.35 457.05C422.62 455.27 432.89 453.48 443.15 451.7C460.82 448.62 478.5 445.55 495.94 441.38C503.76 439.5 512.56 436.55 515.64 429.12C525.64 405.02 482.94 401.88 468.7 402.57C444.25 403.74 419.69 417.78 404.51 436.58Z" />
					<path id="&lt;Path&gt;" class="shp13" d="M516.76 476.82C506.63 479.1 502.32 493.64 502.61 502.98C502.67 513.56 510.45 520.46 519.25 514.08C525.9 509.14 530.43 501.86 531.91 493.71C533.71 483.7 526.9 474.53 516.76 476.82Z" />
					<path id="&lt;Path&gt;" class="shp19" d="M445.33 513.64C441.48 516.17 437.98 516.71 434.83 515.24C438.74 506.53 438.21 508.5 439.4 493.65L445.33 513.64Z" />
					<path id="&lt;Path&gt;" class="shp12" d="M463.12 465.36C460.22 462.12 452.33 460.88 448.03 461.51C448 461.52 447.96 461.52 447.93 461.53C447.03 461.66 446.19 461.05 446.05 460.14C445.93 459.19 446.56 458.3 447.51 458.11C452.91 457.29 461.91 458.92 465.56 462.97C465.57 462.98 465.58 463 465.59 463.01C466.22 463.72 466.16 464.81 465.44 465.44C465.22 465.65 464.96 465.81 464.68 465.93C464.1 466.02 463.51 465.81 463.12 465.36Z" />
					<path id="&lt;Path&gt;" class="shp12" d="M413.19 472.77C413.16 472.75 413.12 472.73 413.09 472.7C412.33 472.2 412.13 471.17 412.63 470.41C415.39 465.49 420.29 462.13 425.88 461.33C425.92 461.33 425.96 461.33 426 461.33C426.89 461.33 427.61 462.05 427.61 462.94C427.64 463.9 426.91 464.72 425.95 464.8C421.53 465.49 417.69 468.2 415.54 472.12C415.24 472.62 414.72 472.95 414.15 473.01C413.81 473.03 413.48 472.95 413.19 472.77Z" />
					<path id="&lt;Path&gt;" class="shp20" d="M442.31 529.33C445.12 532.64 448.53 537.58 452.52 544.17C453.33 543.85 454.14 543.53 454.93 543.16C465.79 538.45 468.88 531.91 469.02 526.07C469.08 522.88 468.22 519.87 467.26 517.53C466.54 515.72 465.75 514.24 464.89 513.07C461 519.75 451.3 525.08 445.98 527.66C444.5 528.4 443.28 528.96 442.31 529.33Z" />
					<path id="&lt;Path&gt;" class="shp4" d="M445.98 527.66L447.53 529.81C448.43 531.06 450.12 531.52 451.51 530.86C459.54 527.08 464.86 523.05 466.79 518.78C467.17 517.96 467.06 516.99 466.67 516.18C466.06 514.89 465.47 513.86 464.89 513.07C461 519.75 451.3 525.08 445.98 527.66Z" />
					<path id="&lt;Path&gt;" class="shp21" d="M454.93 543.16C465.79 538.45 468.88 531.91 469.02 526.07C465.39 527.85 461.26 530.48 458.25 534.2C455.94 537.03 455.11 540.22 454.93 543.16Z" />
					<path id="&lt;Path&gt;" class="shp12" d="M425.6 485C423.72 485.35 422.65 488.03 423.21 490.93C423.77 493.82 425.79 495.91 427.67 495.52C429.54 495.14 430.63 492.5 430.06 489.6C429.56 486.76 427.49 484.66 425.6 485Z" />
					<path id="&lt;Path&gt;" class="shp12" d="M458.71 479.51C456.82 479.85 455.75 482.54 456.31 485.43C456.87 488.33 458.89 490.41 460.77 490.03C462.64 489.65 463.73 487 463.16 484.11C462.66 481.27 460.59 479.16 458.71 479.51Z" />
					<path id="&lt;Path&gt;" class="shp22" d="M411 500.5L435.35 495.03L435.76 505.36L413.14 510.78L411 500.5Z" />
					<path id="&lt;Path&gt;" class="shp22" d="M442.76 493.41L445.67 502.9L476.89 496.18L475.04 485.2L442.76 493.41Z" />
					<path id="&lt;Path&gt;" class="shp12" d="M435.5 498.83L435.35 495.03L442.76 493.41L443.86 497L435.5 498.83Z" />
					<path id="&lt;Path&gt;" class="shp12" d="M426.63 890.34C455.93 901.69 473.91 908.47 480.6 910.7C492.43 914.65 504.43 918.62 516.77 919C529.11 919.37 542.05 915.72 550.98 906.21C561.48 895.03 564.73 878.03 567.47 862.12C575.52 815.34 583.58 768.55 591.63 721.76C595.61 698.69 605.63 664.02 604.78 650.81C603.21 626.52 587.73 597.84 548.34 582.03C533.03 575.9 517.92 578.25 505.02 593.68C497.33 602.89 474.87 625.02 469.35 664.02C464.93 695.27 458.09 735.75 458.51 767.49C459.06 809.14 442.47 861.78 426.63 890.34Z" />
					<path id="&lt;Path&gt;" class="shp12" d="M602.66 637.98C607.14 678.66 584.66 781.16 580.32 787.3C561.89 846.77 511.25 814.72 503.9 811.98C491.13 807.26 478.14 798.06 465.99 791.91C442.41 780.21 420.09 770.78 398.17 756.21L410.52 731.83C434.53 740.04 502.55 757.6 513.76 760.34C518.64 761.61 537.57 771.55 537.37 758.44C540.06 754.09 543.77 669.19 551.9 639.18C552.82 635.8 554.45 632.69 556.64 629.95L557.38 629.03C570.53 612.56 596.77 617.75 602.66 637.98Z" />
					<path id="&lt;Path&gt;" class="shp3" d="M602.66 637.98C607.14 678.66 584.66 781.16 580.32 787.3C561.89 846.77 511.25 814.72 503.9 811.98C491.13 807.26 478.14 798.06 465.99 791.91C442.41 780.21 420.09 770.78 398.17 756.21L410.52 731.83C434.53 740.04 502.55 757.6 513.76 760.34C518.64 761.61 537.57 771.55 537.37 758.44C540.06 754.09 543.77 669.19 551.9 639.18C552.82 635.8 554.45 632.69 556.64 629.95L557.38 629.03C570.53 612.56 596.77 617.75 602.66 637.98Z" />
					<path id="&lt;Path&gt;" class="shp12" d="M400.85 791.53L286.67 791.53L273.63 642.54L387.81 642.54L400.85 791.53Z" />
					<path id="&lt;Path&gt;" class="shp10" d="M400.85 791.53L286.67 791.53L273.63 642.54L387.81 642.54L400.85 791.53Z" />
					<path id="&lt;Path&gt;" class="shp7" d="M396.81 790.78L282.63 790.78L269.6 641.79L383.78 641.79L396.81 790.78Z" />
					<path id="&lt;Path&gt;" class="shp15" d="M396.81 790.78L282.63 790.78L269.6 641.79L383.78 641.79L396.81 790.78Z" />
					<path id="&lt;Path&gt;" class="shp7" d="M351.52 651.1L303.49 651.1L301.86 632.48L349.89 632.48L351.52 651.1Z" />
					<path id="&lt;Path&gt;" class="shp7" d="M301.86 632.48L306.6 630.85L356.32 630.85L356.99 638.77L353.3 643.06L353.05 649.53L351.52 651.1L349.89 632.48L301.86 632.48Z" />
					<path id="&lt;Path&gt;" class="shp17" d="M301.86 632.48L306.6 630.85L356.32 630.85L356.99 638.77L353.3 643.06L353.05 649.53L351.52 651.1L349.89 632.48L301.86 632.48Z" />
					<path id="&lt;Path&gt;" class="shp13" d="M419.6 739.91L422.21 753.84C418.1 764.55 404.24 768.49 380.63 765.66L380.57 724.51L411.79 731.76C415.77 732.7 418.83 735.9 419.6 739.91Z" />
					<path id="&lt;Path&gt;" class="shp13" d="M380.57 724.51L380.75 765.75L349.42 766.53L342.23 730.24L380.57 724.51Z" />
					<path id="&lt;Path&gt;" class="shp7" d="M499.86 1059.47L511.77 885.72C513.49 861.19 525.44 840.73 542.02 831.05C552.49 822.81 565.11 817.68 578.7 816.83C580.11 816.68 581.53 816.64 582.94 816.64C593.98 816.64 604.44 819.43 613.73 824.48C614.03 824.59 614.3 824.77 614.6 824.92C624.23 830.23 632.6 837.84 639.13 847.19L639.17 847.23C648.32 860.41 653.8 876.89 653.8 894.82C653.8 933.42 628.4 965.56 595.02 971.83L582.13 1159.8C581.02 1175.8 570.52 1188.04 557.91 1188.04L493.2 1188.04L499.86 1059.47Z" />
					<path id="&lt;Path&gt;" class="shp3" d="M499.86 1059.47L511.77 885.72C513.49 861.19 525.44 840.73 542.02 831.05C552.49 822.81 565.11 817.68 578.7 816.83C580.11 816.68 581.53 816.64 582.94 816.64C593.98 816.64 604.44 819.43 613.73 824.48C614.03 824.59 614.3 824.77 614.6 824.92C624.23 830.23 632.6 837.84 639.13 847.19L639.17 847.23C648.32 860.41 653.8 876.89 653.8 894.82C653.8 933.42 628.4 965.56 595.02 971.83L582.13 1159.8C581.02 1175.8 570.52 1188.04 557.91 1188.04L493.2 1188.04L499.86 1059.47Z" />
				</g>
			</g>
		</g>
	</g>
</svg>