<svg version="1.2" baseProfile="tiny-ps" xmlns="http://www.w3.org/2000/svg" viewBox="0 0 864 1458" width="864" height="1458">
	<title>Character 1</title>
	<style>
		tspan { white-space:pre }
		.shp0 { fill: #fafafa } 
		.shp1 { opacity: 0.102;fill: #ffffff } 
		.shp2 { fill: #ffffff } 
		.shp3 { fill: #e0e0e0 } 
		.shp4 { fill: #ebebeb } 
		.shp5 { fill: #e6e6e6 } 
		.shp6 { fill: none;stroke: #407bff;stroke-width: 3 } 
		.shp7 { fill: #407bff } 
		.shp8 { opacity: 0.102;fill: #000000 } 
		.shp9 { opacity: 0.702;fill: #ffffff } 
		.shp10 { opacity: 0.502;fill: #ffffff } 
		.shp11 { fill: #000000 } 
		.shp12 { fill: #ffc3bd } 
		.shp13 { fill: #263238 } 
		.shp14 { opacity: 0.6;fill: #000000 } 
		.shp15 { opacity: 0.8;fill: #ffffff } 
		.shp16 { fill: #e8bfbf } 
		.shp17 { opacity: 0.2;fill: #000000 } 
		.shp18 { opacity: 0.502;fill: #000000 } 
		.shp19 { fill: #ed847e } 
	</style>
	<g id="Background Complete">
		<g id="&lt;Group&gt;">
			<g id="&lt;Group&gt;">
				<g id="&lt;Group&gt;">
					<path id="&lt;Path&gt;" class="shp0" d="M658.8 1081.59L351.46 1081.59L351.46 39.04L658.8 39.04L658.8 1081.59Z" />
					<path id="&lt;Path&gt;" class="shp1" d="M658.19 1081.59L350.86 1081.59L350.86 39.04L658.19 39.04L658.19 1081.59Z" />
					<g id="&lt;Group&gt;" style="opacity: 0.302">
						<path id="&lt;Path&gt;" class="shp2" d="M628.12 39.04L530.14 39.04L422.94 1081.59L520.93 1081.59L628.12 39.04Z" />
					</g>
					<path id="&lt;Path&gt;" class="shp3" d="M661.37 52.26L348.89 52.26L348.89 25.82L661.37 25.82L661.37 52.26Z" />
					<path id="&lt;Path&gt;" class="shp4" d="M661.37 1098.91L348.89 1098.91L348.89 1072.47L661.37 1072.47L661.37 1098.91Z" />
					<g id="&lt;Group&gt;">
						<path id="&lt;Compound Path&gt;" fill-rule="evenodd" class="shp4" d="M673.52 1121.45L334.75 1121.45L334.75 0L673.52 0L673.52 1121.45ZM360.58 1095.63L647.69 1095.63L647.69 25.82L360.58 25.82L360.58 1095.63Z" />
					</g>
				</g>
				<g id="&lt;Group&gt;">
					<path id="&lt;Path&gt;" class="shp0" d="M324.05 1081.59L16.71 1081.59L16.71 39.04L324.05 39.04L324.05 1081.59Z" />
					<g id="&lt;Group&gt;">
						<path id="&lt;Path&gt;" class="shp5" d="M39.83 480.53L39.83 680.13L277.69 680.13L277.69 480.53L39.83 480.53Z" />
						<path id="&lt;Path&gt;" class="shp0" d="M85.51 535.86L55.06 535.86L55.06 505.41L85.51 505.41L85.51 535.86Z" />
						<path id="&lt;Path&gt;" class="shp0" d="M144.5 535.86L114.04 535.86L114.04 505.41L144.5 505.41L144.5 535.86Z" />
						<path id="&lt;Path&gt;" class="shp0" d="M203.48 535.86L173.03 535.86L173.03 505.41L203.48 505.41L203.48 535.86Z" />
						<path id="&lt;Path&gt;" class="shp0" d="M262.47 535.86L232.02 535.86L232.02 505.41L262.47 505.41L262.47 535.86Z" />
						<path id="&lt;Path&gt;" class="shp0" d="M85.51 591.19L55.06 591.19L55.06 560.74L85.51 560.74L85.51 591.19Z" />
						<path id="&lt;Path&gt;" class="shp0" d="M144.5 591.19L114.04 591.19L114.04 560.74L144.5 560.74L144.5 591.19Z" />
						<path id="&lt;Path&gt;" class="shp0" d="M203.48 591.19L173.03 591.19L173.03 560.74L203.48 560.74L203.48 591.19Z" />
						<path id="&lt;Path&gt;" class="shp5" d="M262.47 591.19L232.02 591.19L232.02 560.74L262.47 560.74L262.47 591.19Z" />
						<path id="&lt;Path&gt;" class="shp5" d="M85.51 646.52L55.06 646.52L55.06 616.07L85.51 616.07L85.51 646.52Z" />
						<path id="&lt;Path&gt;" class="shp5" d="M144.5 646.52L114.04 646.52L114.04 616.07L144.5 616.07L144.5 646.52Z" />
						<path id="&lt;Path&gt;" class="shp0" d="M203.48 646.52L173.03 646.52L173.03 616.07L203.48 616.07L203.48 646.52Z" />
						<path id="&lt;Path&gt;" class="shp5" d="M262.47 646.52L232.02 646.52L232.02 616.07L262.47 616.07L262.47 646.52Z" />
					</g>
					<g id="&lt;Group&gt;">
						<path id="&lt;Path&gt;" class="shp5" d="M39.83 677.63L39.83 877.23L277.69 877.23L277.69 677.63L39.83 677.63Z" />
						<path id="&lt;Path&gt;" class="shp0" d="M85.51 732.96L55.06 732.96L55.06 702.51L85.51 702.51L85.51 732.96Z" />
						<path id="&lt;Path&gt;" class="shp0" d="M144.5 732.96L114.04 732.96L114.04 702.51L144.5 702.51L144.5 732.96Z" />
						<path id="&lt;Path&gt;" class="shp0" d="M203.48 732.96L173.03 732.96L173.03 702.51L203.48 702.51L203.48 732.96Z" />
						<path id="&lt;Path&gt;" class="shp0" d="M262.47 732.96L232.02 732.96L232.02 702.51L262.47 702.51L262.47 732.96Z" />
						<path id="&lt;Path&gt;" class="shp0" d="M85.51 788.29L55.06 788.29L55.06 757.84L85.51 757.84L85.51 788.29Z" />
						<path id="&lt;Path&gt;" class="shp0" d="M144.5 788.29L114.04 788.29L114.04 757.84L144.5 757.84L144.5 788.29Z" />
						<path id="&lt;Path&gt;" class="shp0" d="M203.48 788.29L173.03 788.29L173.03 757.84L203.48 757.84L203.48 788.29Z" />
						<path id="&lt;Path&gt;" class="shp5" d="M262.47 788.29L232.02 788.29L232.02 757.84L262.47 757.84L262.47 788.29Z" />
						<path id="&lt;Path&gt;" class="shp5" d="M85.51 843.62L55.06 843.62L55.06 813.17L85.51 813.17L85.51 843.62Z" />
						<path id="&lt;Path&gt;" class="shp5" d="M144.5 843.62L114.04 843.62L114.04 813.17L144.5 813.17L144.5 843.62Z" />
						<path id="&lt;Path&gt;" class="shp0" d="M203.48 843.62L173.03 843.62L173.03 813.17L203.48 813.17L203.48 843.62Z" />
						<path id="&lt;Path&gt;" class="shp5" d="M262.47 843.62L232.02 843.62L232.02 813.17L262.47 813.17L262.47 843.62Z" />
					</g>
					<g id="&lt;Group&gt;">
						<path id="&lt;Path&gt;" class="shp5" d="M39.83 874.73L39.83 1074.33L277.69 1074.33L277.69 874.73L39.83 874.73Z" />
						<path id="&lt;Path&gt;" class="shp0" d="M85.51 930.06L55.06 930.06L55.06 899.61L85.51 899.61L85.51 930.06Z" />
						<path id="&lt;Path&gt;" class="shp0" d="M144.5 930.06L114.04 930.06L114.04 899.61L144.5 899.61L144.5 930.06Z" />
						<path id="&lt;Path&gt;" class="shp0" d="M203.48 930.06L173.03 930.06L173.03 899.61L203.48 899.61L203.48 930.06Z" />
						<path id="&lt;Path&gt;" class="shp0" d="M262.47 930.06L232.02 930.06L232.02 899.61L262.47 899.61L262.47 930.06Z" />
						<path id="&lt;Path&gt;" class="shp0" d="M85.51 985.39L55.06 985.39L55.06 954.94L85.51 954.94L85.51 985.39Z" />
						<path id="&lt;Path&gt;" class="shp0" d="M144.5 985.39L114.04 985.39L114.04 954.94L144.5 954.94L144.5 985.39Z" />
						<path id="&lt;Path&gt;" class="shp0" d="M203.48 985.39L173.03 985.39L173.03 954.94L203.48 954.94L203.48 985.39Z" />
						<path id="&lt;Path&gt;" class="shp5" d="M262.47 985.39L232.02 985.39L232.02 954.94L262.47 954.94L262.47 985.39Z" />
						<path id="&lt;Path&gt;" class="shp5" d="M85.51 1040.72L55.06 1040.72L55.06 1010.27L85.51 1010.27L85.51 1040.72Z" />
						<path id="&lt;Path&gt;" class="shp5" d="M144.5 1040.72L114.04 1040.72L114.04 1010.27L144.5 1010.27L144.5 1040.72Z" />
						<path id="&lt;Path&gt;" class="shp0" d="M203.48 1040.72L173.03 1040.72L173.03 1010.27L203.48 1010.27L203.48 1040.72Z" />
						<path id="&lt;Path&gt;" class="shp5" d="M262.47 1040.72L232.02 1040.72L232.02 1010.27L262.47 1010.27L262.47 1040.72Z" />
					</g>
					<path id="&lt;Path&gt;" class="shp1" d="M319.96 1081.59L12.63 1081.59L12.63 39.04L319.96 39.04L319.96 1081.59Z" />
					<g id="&lt;Group&gt;" style="opacity: 0.302">
						<path id="&lt;Path&gt;" class="shp2" d="M293.37 39.04L195.39 39.04L88.19 1081.59L186.18 1081.59L293.37 39.04Z" />
					</g>
					<path id="&lt;Path&gt;" class="shp3" d="M326.62 52.26L14.14 52.26L14.14 25.82L326.62 25.82L326.62 52.26Z" />
					<path id="&lt;Path&gt;" class="shp4" d="M326.62 1098.91L14.14 1098.91L14.14 1072.47L326.62 1072.47L326.62 1098.91Z" />
					<g id="&lt;Group&gt;">
						<path id="&lt;Compound Path&gt;" fill-rule="evenodd" class="shp4" d="M338.77 1121.45L0 1121.45L0 0L338.77 0L338.77 1121.45ZM25.82 1095.63L312.94 1095.63L312.94 25.82L25.82 25.82L25.82 1095.63Z" />
					</g>
				</g>
			</g>
		</g>
	</g>
	<g id="Text Balloon">
		<g id="&lt;Group&gt;">
			<g id="&lt;Group&gt;">
				<path id="&lt;Path&gt;" class="shp6" d="M775.43 281.56L775.43 461.9C775.43 471.3 767.8 478.93 758.4 478.93L573.49 478.93L507.5 529.96C505.34 531.6 502.67 532.5 499.95 532.5C492.96 532.5 487.31 526.85 487.31 519.87L487.31 478.93L477 478.93C467.6 478.93 459.97 471.3 459.97 461.9L459.97 281.52C460.01 272.16 467.64 264.57 477 264.61L758.48 264.61C767.84 264.61 775.43 272.2 775.43 281.56Z" />
			</g>
			<g id="&lt;Group&gt;">
				<path id="&lt;Path&gt;" class="shp7" d="M567.25 239.23L602.49 239.23L602.49 243.54L567.25 243.54L567.25 239.23Z" />
				<path id="&lt;Path&gt;" class="shp7" d="M437.64 290.04L433.33 290.04L433.33 268.77C433.35 252.42 446.61 239.18 462.96 239.18L541.59 239.18L541.59 243.5L462.96 243.5C448.99 243.5 437.67 254.81 437.64 268.77L437.64 290.04Z" />
			</g>
			<g id="&lt;Group&gt;">
				<path id="&lt;Compound Path&gt;" class="shp7" d="M686.89 396.72C678.97 396.72 672.57 390.02 673.25 382.13C673.25 382.07 673.26 382 673.26 381.94C677.86 329.35 719.53 324.54 724.77 264.72C726.27 247.54 719.97 241.01 707.94 241.01C695.9 241.01 688.46 247.54 686.95 264.72L686.09 274.59C685.29 283.79 677.58 290.85 668.35 290.85C657.9 290.85 649.7 281.9 650.61 271.49L650.99 267.13C654.36 228.63 675.19 206.63 711.98 206.63C748.76 206.63 765.74 228.63 762.37 267.13C756.89 329.69 711.36 339.32 707.52 383.32C707.5 383.53 707.48 383.75 707.46 383.96C706.89 391.14 701.03 396.72 693.83 396.72L686.89 396.72ZM705.55 433.3L705.54 433.44C704.72 442.81 696.87 450.01 687.46 450.01C676.81 450.01 668.45 440.88 669.38 430.28L669.39 430.14C670.21 420.76 678.06 413.57 687.47 413.57L687.47 413.57C698.12 413.57 706.48 422.69 705.55 433.3Z" />
			</g>
			<g id="&lt;Group&gt;">
				<g id="&lt;Group&gt;">
					<path id="&lt;Path&gt;" class="shp7" d="M638.28 354.51L539.25 354.51C534.49 354.51 530.63 350.65 530.63 345.89C530.63 341.12 534.49 337.26 539.25 337.26L638.28 337.26C643.04 337.26 646.91 341.12 646.91 345.89C646.91 350.65 643.04 354.51 638.28 354.51Z" />
				</g>
				<g id="&lt;Group&gt;">
					<path id="&lt;Path&gt;" class="shp7" d="M624.56 388.64L539.25 388.64C534.49 388.64 530.63 384.78 530.63 380.02C530.63 375.25 534.49 371.39 539.25 371.39L624.56 371.39C629.32 371.39 633.18 375.25 633.18 380.02C633.18 384.78 629.32 388.64 624.56 388.64Z" />
				</g>
				<g id="&lt;Group&gt;">
					<path id="&lt;Path&gt;" class="shp7" d="M610.83 422.77L539.25 422.77C534.49 422.77 530.63 418.91 530.63 414.15C530.63 409.38 534.49 405.52 539.25 405.52L610.83 405.52C615.6 405.52 619.46 409.38 619.46 414.15C619.46 418.91 615.6 422.77 610.83 422.77Z" />
				</g>
			</g>
		</g>
	</g>
	<g id="Character 1">
		<g id="&lt;Group&gt;">
			<path id="&lt;Path&gt;" class="shp7" d="M407.87 1126.58L344.83 1126.58C329.5 1126.58 317.08 1136.28 317.08 1148.25L317.08 1185.53C317.08 1197.49 329.5 1207.19 344.83 1207.19L407.87 1207.19L407.87 1126.58Z" />
		</g>
		<g id="&lt;Group&gt;">
			<g id="&lt;Group&gt;">
				<g id="&lt;Group&gt;">
					<path id="&lt;Path&gt;" class="shp7" d="M114.98 1302.06L93.08 953.31C84.94 823.77 187.81 714.24 317.6 714.24L317.6 714.24C436.93 714.24 535.49 807.41 542.21 926.54L565.18 1333.88L148.86 1333.88C130.94 1333.88 116.1 1319.95 114.98 1302.06Z" />
					<path id="&lt;Path&gt;" class="shp8" d="M114.19 1289.43L93.08 953.31C84.94 823.77 187.81 714.24 317.6 714.24L317.6 714.24C436.93 714.24 535.49 807.41 542.21 926.54L565.18 1333.88L161.52 1333.88C136.48 1333.88 115.76 1314.41 114.19 1289.43Z" />
				</g>
				<path id="&lt;Path&gt;" class="shp7" d="M182.55 1333.88L158.65 953.31C150.51 823.77 253.38 714.24 383.17 714.24L383.17 714.24C502.5 714.24 601.06 807.41 607.78 926.54L630.75 1333.88L182.55 1333.88Z" />
			</g>
			<g id="&lt;Group&gt;">
				<path id="&lt;Path&gt;" class="shp7" d="M175.38 1399.39L169.63 1399.39C166.7 1399.39 163.97 1396.92 163.5 1393.55L155.01 1333.89L190 1333.89L181.52 1393.55C181.04 1396.92 178.31 1399.39 175.38 1399.39Z" />
				<path id="&lt;Path&gt;" class="shp9" d="M175.38 1399.39L169.63 1399.39C166.7 1399.39 163.97 1396.92 163.5 1393.55L155.01 1333.89L190 1333.89L181.52 1393.55C181.04 1396.92 178.31 1399.39 175.38 1399.39Z" />
			</g>
			<g id="&lt;Group&gt;">
				<path id="&lt;Path&gt;" class="shp7" d="M738.91 1399.39L733.69 1399.39C731.04 1399.39 728.56 1396.92 728.13 1393.55L720.44 1333.89L752.16 1333.89L744.47 1393.55C744.04 1396.92 741.56 1399.39 738.91 1399.39Z" />
				<path id="&lt;Path&gt;" class="shp10" d="M738.91 1399.39L733.69 1399.39C731.04 1399.39 728.56 1396.92 728.13 1393.55L720.44 1333.89L752.16 1333.89L744.47 1393.55C744.04 1396.92 741.56 1399.39 738.91 1399.39Z" />
			</g>
			<g id="&lt;Group&gt;">
				<path id="&lt;Path&gt;" class="shp7" d="M576.66 1399.39L571.45 1399.39C568.79 1399.39 566.32 1396.92 565.88 1393.55L558.19 1333.89L589.91 1333.89L582.22 1393.55C581.79 1396.92 579.32 1399.39 576.66 1399.39Z" />
				<path id="&lt;Path&gt;" class="shp9" d="M576.66 1399.39L571.45 1399.39C568.79 1399.39 566.32 1396.92 565.88 1393.55L558.19 1333.89L589.91 1333.89L582.22 1393.55C581.79 1396.92 579.32 1399.39 576.66 1399.39Z" />
			</g>
			<g id="&lt;Group&gt;">
				<path id="&lt;Path&gt;" class="shp7" d="M350.06 1399.39L344.31 1399.39C341.38 1399.39 338.65 1396.92 338.17 1393.55L329.69 1333.89L364.68 1333.89L356.2 1393.55C355.72 1396.92 352.99 1399.39 350.06 1399.39Z" />
				<path id="&lt;Path&gt;" class="shp10" d="M350.06 1399.39L344.31 1399.39C341.38 1399.39 338.65 1396.92 338.17 1393.55L329.69 1333.89L364.68 1333.89L356.2 1393.55C355.72 1396.92 352.99 1399.39 350.06 1399.39Z" />
			</g>
			<g id="&lt;Group&gt;">
				<g id="&lt;Group&gt;">
					<path id="&lt;Path&gt;" class="shp7" d="M539.97 1190.15L693.34 1190.15L703.5 1042.28L705.66 1010.54L705.66 1010.49L706.66 995.89C706.95 991.98 707.45 988.17 708.16 984.45C708.33 983.62 708.54 982.75 708.7 981.92C708.79 981.28 708.95 980.68 709.16 980.08C713.53 964.56 721.69 950.87 732.52 940.39C745.47 927.85 762.09 919.91 780.41 918.8L636.16 918.8C634.58 918.71 633 918.67 631.41 918.67C611.38 918.67 593.1 926.89 579.15 940.39C568.33 950.87 560.16 964.56 555.79 980.08C555.58 980.68 555.42 981.28 555.33 981.92C554.33 986.42 553.63 991.06 553.29 995.89L552.29 1010.49L552.29 1010.54L539.97 1190.15Z" />
					<path id="&lt;Path&gt;" class="shp8" d="M539.97 1190.15L693.34 1190.15L703.5 1042.28L705.66 1010.54L705.66 1010.49L706.66 995.89C706.95 991.98 707.45 988.17 708.16 984.45C708.33 983.62 708.54 982.75 708.7 981.92C708.79 981.28 708.95 980.68 709.16 980.08C713.53 964.56 721.69 950.87 732.52 940.39C745.47 927.85 762.09 919.91 780.41 918.8L636.16 918.8C634.58 918.71 633 918.67 631.41 918.67C611.38 918.67 593.1 926.89 579.15 940.39C568.33 950.87 560.16 964.56 555.79 980.08C555.58 980.68 555.42 981.28 555.33 981.92C554.33 986.42 553.63 991.06 553.29 995.89L552.29 1010.49L552.29 1010.54L539.97 1190.15Z" />
				</g>
			</g>
			<g id="&lt;Group&gt;" style="opacity: 0.102">
				<path id="&lt;Path&gt;" class="shp11" d="M418.42 1111.38L356.8 1111.38C341.83 1111.38 329.69 1120.86 329.69 1132.56L329.69 1168.99C329.69 1180.69 341.83 1190.17 356.8 1190.17L418.42 1190.17L418.42 1111.38Z" />
			</g>
			<g id="&lt;Group&gt;">
				<path id="&lt;Path&gt;" class="shp7" d="M669.93 1190.17L398.67 1190.17C385.75 1190.17 375.27 1179.69 375.27 1166.77L375.27 1134.78C375.27 1121.86 385.75 1111.38 398.67 1111.38L669.93 1111.38C682.85 1111.38 693.32 1121.86 693.32 1134.78L693.32 1166.77C693.32 1179.69 682.85 1190.17 669.93 1190.17Z" />
			</g>
			<path id="&lt;Path&gt;" class="shp7" d="M30.11 1006.04C30.11 1049.22 61.44 1085.14 102.6 1092.17L118.49 1302.33C119.87 1320.2 132.83 1333.89 148.35 1333.89L317.54 1333.89C302.01 1333.89 289.05 1320.2 287.68 1302.33L279.18 1190.15L271.78 1092.17C244.41 1087.48 221.39 1070.07 209.08 1046.19C208.25 1044.67 207.52 1043.06 206.83 1041.45C201.96 1030.61 199.3 1018.67 199.3 1006.04C199.3 999.93 199.94 993.96 201.13 988.21C201.59 985.87 202.19 983.53 202.83 981.28C205.96 970.85 210.92 961.25 217.35 952.84L217.39 952.8C225.43 942.32 235.77 933.82 247.62 927.9C259.38 921.97 272.66 918.67 286.67 918.67L117.48 918.67C108.52 918.67 99.84 920.04 91.67 922.57C87.07 924 82.66 925.79 78.44 927.9C66.58 933.82 56.25 942.32 48.21 952.8L48.16 952.84C36.86 967.59 30.11 986.01 30.11 1006.04Z" />
			<path id="&lt;Path&gt;" class="shp8" d="M30.11 1006.04C30.11 1049.22 61.44 1085.14 102.6 1092.17L118.49 1302.33C119.87 1320.2 132.83 1333.89 148.35 1333.89L317.54 1333.89C302.01 1333.89 289.05 1320.2 287.68 1302.33L279.18 1190.15L271.78 1092.17C244.41 1087.48 221.39 1070.07 209.08 1046.19C208.25 1044.67 207.52 1043.06 206.83 1041.45C201.96 1030.61 199.3 1018.67 199.3 1006.04C199.3 999.93 199.94 993.96 201.13 988.21C201.59 985.87 202.19 983.53 202.83 981.28C205.96 970.85 210.92 961.25 217.35 952.84L217.39 952.8C225.43 942.32 235.77 933.82 247.62 927.9C259.38 921.97 272.66 918.67 286.67 918.67L117.48 918.67C108.52 918.67 99.84 920.04 91.67 922.57C87.07 924 82.66 925.79 78.44 927.9C66.58 933.82 56.25 942.32 48.21 952.8L48.16 952.84C36.86 967.59 30.11 986.01 30.11 1006.04Z" />
			<path id="&lt;Path&gt;" class="shp7" d="M199.28 1006.05C199.28 1049.21 227.68 1085.15 265 1092.16L279.41 1302.32C280.65 1320.2 292.39 1333.9 306.5 1333.9L758.25 1333.9C772.32 1333.9 784.06 1320.2 785.34 1302.32L799.78 1091.83C836.35 1084.15 864 1048.67 864 1006.05C864 987.2 858.58 969.78 849.4 955.54C841.92 943.88 831.83 934.33 820.17 927.9C809.53 921.97 797.49 918.65 784.77 918.65C764.76 918.65 746.47 926.91 732.52 940.39C721.68 950.85 713.52 964.55 709.15 980.07C708.96 980.69 708.78 981.27 708.7 981.93C707.69 986.42 707.01 991.06 706.67 995.88L705.65 1010.49L705.65 1010.53L693.35 1190.14L371.39 1190.14L358.08 995.88C356.16 968.45 342.8 945.58 324.26 934.75C312.56 925.54 298.45 919.81 283.25 918.85C281.67 918.69 280.09 918.65 278.51 918.65C266.17 918.65 254.47 921.76 244.09 927.4C243.75 927.53 243.45 927.74 243.11 927.9C232.35 933.84 222.98 942.34 215.68 952.8L215.65 952.84C205.41 967.57 199.28 986 199.28 1006.05Z" />
			<g id="&lt;Group&gt;">
				<path id="&lt;Path&gt;" class="shp1" d="M378.85 1333.9L758.25 1333.9C772.32 1333.9 784.06 1320.2 785.34 1302.32L799.78 1091.83C836.35 1084.15 864 1048.67 864 1006.05C864 987.2 858.58 969.78 849.4 955.54C841.92 943.88 831.83 934.33 820.17 927.9C809.53 921.97 797.49 918.65 784.77 918.65C764.76 918.65 746.47 926.91 732.52 940.39C721.68 950.85 713.52 964.55 709.15 980.07C708.96 980.69 708.78 981.27 708.7 981.93C707.69 986.42 707.01 991.06 706.67 995.88L705.65 1010.49L705.65 1010.53L693.35 1190.14L371.39 1190.14L378.85 1333.9Z" />
			</g>
			<g id="&lt;Group&gt;">
				<g id="&lt;Group&gt;">
					<g id="&lt;Group&gt;">
						<g id="&lt;Group&gt;">
							<g id="&lt;Group&gt;">
								<path id="&lt;Path&gt;" class="shp12" d="M494.34 1408.12L531.14 1418.32L564.16 1331.82L527.38 1321.62L494.34 1408.12Z" />
								<path id="&lt;Path&gt;" class="shp13" d="M547.62 1406.83C544.77 1403.04 540.49 1400.57 535.83 1399.67L497.92 1392.3C496.16 1391.89 494.38 1392.9 493.84 1394.62L482.12 1429.19C480.73 1433.13 482.8 1437.45 486.75 1438.84C486.83 1438.87 486.91 1438.9 487 1438.92C500.97 1444.43 510.41 1442.53 532.27 1446.76C545.73 1449.38 574.01 1458.34 592.91 1457.56C611.8 1456.79 611.75 1438.1 603.8 1436.72C575.61 1432.29 554.03 1415.35 547.62 1406.83Z" />
								<g id="&lt;Group&gt;" style="opacity: 0.2">
									<path id="&lt;Path&gt;" class="shp11" d="M564.16 1331.86L547.13 1376.45L510.33 1366.22L527.35 1321.63L564.16 1331.86Z" />
								</g>
								<g id="&lt;Group&gt;">
									<path id="&lt;Path&gt;" class="shp7" d="M441.39 1003.77C589.07 1002.96 660.6 1027.29 655.99 1076.76C651.33 1126.84 627.27 1179.54 608.5 1230.39C590.37 1279.53 573.44 1325.5 557.72 1368.31L507.24 1350.85C537.46 1208.73 562.75 1130.41 583.12 1115.87L395.82 1115.87C333.84 1115.87 307.05 1047.8 367.39 968.45C391.98 968.48 416.65 980.25 441.39 1003.77Z" />
									<path id="&lt;Path&gt;" class="shp14" d="M441.39 1003.77C589.07 1002.96 660.6 1027.29 655.99 1076.76C658.28 1107.48 625.52 1204.66 557.72 1368.31L507.24 1350.85C537.46 1208.73 562.75 1130.41 583.12 1115.87L395.82 1115.87C333.84 1115.87 307.05 1047.8 367.39 968.45C391.98 968.48 416.65 980.25 441.39 1003.77Z" />
								</g>
							</g>
							<g id="&lt;Group&gt;">
								<g id="&lt;Group&gt;">
									<path id="&lt;Path&gt;" class="shp13" d="M597.6 868.89C570.36 893.8 516.81 834.88 508.2 827.86C489.73 812.8 435.46 762.12 438.33 744.53C446.79 692.74 531.82 766.11 556.35 816.65L597.6 868.89Z" />
								</g>
								<path id="&lt;Path&gt;" class="shp7" d="M359.03 713.14C345.38 716.05 330.58 711.11 320.97 721.24C311.36 731.38 307.34 745.63 305.94 759.52C303.99 778.85 306.48 798.31 308.96 817.57C311.96 840.93 314.97 864.28 317.98 887.64C320.03 903.6 319.05 929.56 315.78 945.33L315.76 945.45C314.96 949.46 317.28 953.87 321.04 955.49C391.75 957.92 437.38 958.75 457.94 957.97C474.34 957.35 463.09 914.24 468.11 889.1C469.23 883.52 480.21 860.48 481.82 854.57C489.44 826.73 484.39 807.61 477.33 779.63C472.2 759.33 470.1 730.03 459.74 727.78C441.3 723.78 397.1 705.05 359.03 713.14Z" />
								<path id="&lt;Path&gt;" class="shp15" d="M359.03 713.14C345.38 716.05 330.58 711.11 320.97 721.24C311.36 731.38 307.34 745.63 305.94 759.52C303.99 778.85 306.48 798.31 308.96 817.57C311.96 840.93 314.97 864.28 317.98 887.64C320.03 903.6 319.05 929.56 315.78 945.33L315.76 945.45C314.96 949.46 317.28 953.87 321.04 955.49C391.75 957.92 437.38 958.75 457.94 957.97C474.34 957.35 463.09 914.24 468.11 889.1C469.23 883.52 480.21 860.48 481.82 854.57C489.44 826.73 484.39 807.61 477.33 779.63C472.2 759.33 470.1 730.03 459.74 727.78C441.3 723.78 397.1 705.05 359.03 713.14Z" />
								<path id="&lt;Path&gt;" class="shp13" d="M343.88 733.05C342.47 730.9 305.18 699.49 298.38 735.78C292.08 769.44 295.45 802.84 308.48 835.98C311.48 872.42 318.26 892.46 328.83 896.09C344.69 901.54 359.82 902.9 365.16 893.56C368.73 887.33 370.51 879.55 370.51 870.21C369.24 803.92 360.36 758.2 343.88 733.05Z" />
								<path id="&lt;Path&gt;" class="shp16" d="M369.72 643.83C373.58 667.08 376.82 709.57 360.18 724.54C387.26 738.72 409.68 758.16 427.44 782.89C442.82 770.7 442.93 755.27 439.77 743.65C437.33 734.65 430.83 727.5 422.66 723C406.9 714.32 408.4 698.08 412.73 682.81L369.72 643.83Z" />
								<path id="&lt;Path&gt;" class="shp17" d="M375.02 683.3L390.17 689.11C396.65 691.6 403.58 692.72 410.52 692.41C410.12 695.76 408.79 702.82 410.52 706.79C401.14 710.2 386.31 705.7 380.43 697.14C377.97 693.78 376.14 687.31 375.02 683.3Z" />
								<path id="&lt;Path&gt;" class="shp12" d="M750.86 1333.75L792.07 1333.75L748.9 1230.36L720.95 1277.83L750.86 1333.75Z" />
								<path id="&lt;Path&gt;" class="shp13" d="M788.69 1323.98L740.33 1313C738.61 1312.54 736.84 1313.49 736.27 1315.16L722.78 1352.35C721.64 1356.29 723.9 1360.41 727.84 1361.55C727.91 1361.57 727.99 1361.6 728.07 1361.61C745.02 1365.16 753.36 1366.01 774.62 1370.84C787.72 1373.81 820.85 1382.51 838.91 1386.6C856.96 1390.7 861.72 1373 854.53 1369.65C822.28 1354.72 804.79 1340.44 795.43 1328.28C793.76 1326.1 791.37 1324.58 788.69 1323.98Z" />
								<g id="&lt;Group&gt;" style="opacity: 0.2">
									<path id="&lt;Path&gt;" class="shp11" d="M748.9 1230.39L767.28 1274.42L730.21 1295.13L720.95 1277.86L748.9 1230.39Z" />
								</g>
								<path id="&lt;Path&gt;" class="shp13" d="M314.94 955.84L310.49 969.9C309.9 970.98 311.14 972.12 312.98 972.19L472.74 977.04C474.18 977.04 475.36 976.42 475.49 975.5L477.33 961.38C477.33 960.4 476.25 959.54 474.71 959.48L317.73 954.73C316.67 954.57 315.6 954.99 314.94 955.84Z" />
								<g id="&lt;Group&gt;">
									<g id="&lt;Group&gt;">
										<path id="&lt;Path&gt;" class="shp7" d="M514.58 1071.23C462.09 1093.6 405.13 1115.97 374.17 1115.97C312.16 1115.97 257.08 1071.19 315.79 969.37C340.39 969.28 374.06 969.63 416.82 970.42C497.46 947.54 567.02 939.44 625.5 946.11C668.29 950.99 702.88 983.1 711.28 1025.35C726.12 1100.04 744.97 1177.85 767.83 1258.76L723.71 1288.8C677.84 1192.36 641.71 1105.88 615.31 1029.35C594.37 1036.06 555.86 1053.64 514.58 1071.23Z" />
									</g>
									<path id="&lt;Path&gt;" class="shp18" d="M711.28 1025.35C702.88 983.1 668.29 950.99 625.5 946.11C567.02 939.44 497.46 947.54 416.82 970.42C374.06 969.63 340.39 969.28 315.8 969.37C256.12 1070.84 312.16 1115.97 374.17 1115.97C405.13 1115.97 462.09 1093.6 514.58 1071.23C555.86 1053.64 594.37 1036.06 615.31 1029.35C641.71 1105.88 677.84 1192.36 723.71 1288.8L767.83 1258.76C744.98 1177.85 726.12 1100.04 711.28 1025.35Z" />
								</g>
								<g id="&lt;Group&gt;">
									<path id="&lt;Path&gt;" class="shp7" d="M656.01 1076.77C654.73 1090.59 652.47 1104.97 649.52 1119.68C649.33 1119.22 649.13 1118.8 648.96 1118.34C648.9 1118.21 648.87 1118.11 648.8 1117.98C648.6 1117.52 648.47 1117.03 648.24 1116.6C636.48 1087.45 625.02 1057.54 615.32 1029.4C615.39 1029.4 615.49 1029.46 615.62 1029.5L615.62 1029.46C640.91 1040.18 658.01 1055.31 656.01 1076.77Z" />
									<path id="&lt;Path&gt;" class="shp14" d="M656.01 1076.77C654.73 1090.59 652.47 1104.97 649.52 1119.68C649.33 1119.22 649.13 1118.8 648.96 1118.34C648.9 1118.21 648.87 1118.11 648.8 1117.98C648.6 1117.52 648.47 1117.03 648.24 1116.6C636.48 1087.45 625.02 1057.54 615.32 1029.4C615.39 1029.4 615.49 1029.46 615.62 1029.5L615.62 1029.46C640.91 1040.18 658.01 1055.31 656.01 1076.77Z" />
								</g>
								<g id="&lt;Group&gt;">
									<g id="&lt;Group&gt;">
										<path id="&lt;Path&gt;" class="shp16" d="M341.45 621.48C354.4 657.95 359.1 673.65 383.35 687.3C419.89 707.93 461.73 683.95 459.92 644.35C458.29 608.74 437.38 555.09 396.82 550.78C367.86 547.54 341.75 568.4 338.52 597.37C337.61 605.53 338.61 613.78 341.45 621.48Z" />
										<path id="&lt;Path&gt;" class="shp13" d="M406.96 616.74C407.87 619.91 410.13 621.76 412.12 621.17C414.12 620.59 414.88 617.74 414.12 614.68C413.36 611.61 410.96 609.68 408.95 610.24C406.95 610.8 406.1 613.72 406.96 616.74Z" />
										<path id="&lt;Path&gt;" class="shp13" d="M440.83 606.06C441.71 609.24 444.01 611.09 445.97 610.51C447.93 609.92 448.73 607.07 447.97 604.01C447.21 600.95 444.8 599.02 442.83 599.57C440.87 600.12 439.95 603.06 440.83 606.06Z" />
										<path id="&lt;Path&gt;" class="shp13" d="M441.94 600.01L448.6 595.81C447.25 600.3 445.03 601.7 441.94 600.01Z" />
										<path id="&lt;Path&gt;" class="shp19" d="M428.68 612.95C433.35 619.07 438.83 624.52 444.98 629.15C443.05 632.39 439.64 634.05 434.77 634.13L428.68 612.95Z" />
										<path id="&lt;Path&gt;" class="shp13" d="M317.61 645.76C319.63 652.54 322.98 659.02 323.61 666.07C324.86 679.98 313.58 693.82 299.7 695.4C311.61 698.93 325.64 692.59 330.86 681.32C327.56 689.99 320.8 697.28 312.41 701.23C324.41 701.46 336.37 695.7 343.69 686.19C341.64 691.43 339.59 696.68 337.54 701.92C347.74 695.78 356.25 686.87 361.91 676.39C364.22 672.11 365.95 666.48 362.92 662.66C360.19 659.21 355.1 659.14 350.69 659.05C346.29 658.96 341.02 657.94 339.4 653.85C337.85 649.9 340.75 645.63 343.92 642.83C347.1 640.02 350.95 637.44 352.12 633.36C352.94 630.48 352.23 627.39 351.51 624.48C349.57 616.53 347.62 608.58 345.67 600.63C344.99 597.84 344.28 595 342.68 592.62C334.01 579.7 324.45 598.65 321.27 605.1C315.11 617.58 313.63 632.39 317.61 645.76Z" />
										<path id="&lt;Path&gt;" class="shp16" d="M338.88 657.18C343.75 663.55 350.96 667.73 358.91 668.8C369.48 670.1 373.2 660.28 368.96 651.14C365.14 642.9 355.02 632.33 345.05 635.1C335.08 637.88 332.95 649.25 338.88 657.18Z" />
										<path id="&lt;Path&gt;" class="shp13" d="M407.53 590.69C407.4 591.52 406.76 592.17 405.93 592.31C397.17 593.97 392.3 604.38 392.27 604.46C391.83 605.43 390.69 605.86 389.72 605.43C388.75 604.99 388.32 603.85 388.76 602.88C389.13 602.5 394.51 590.54 405.19 588.5C406.23 588.32 407.23 589 407.44 590.03C407.52 590.24 407.55 590.47 407.53 590.69Z" />
										<g id="&lt;Group&gt;">
											<path id="&lt;Path&gt;" class="shp13" d="M430.53 582.07C429.85 582 429.24 582.16 428.9 582.5C428.42 583.03 426.86 583.92 427.75 584.37C433.02 587.09 440.3 591.46 445.9 590.58C446.84 590.38 449.09 589.56 448.6 588.9C448.12 588.23 446.97 587.85 446.03 588.04C441.57 588.68 435.66 584.49 431.51 582.34C431.2 582.2 430.87 582.11 430.53 582.07Z" />
										</g>
										<path id="&lt;Path&gt;" class="shp13" d="M408.13 610.67L414.79 606.5C413.39 610.98 411.17 612.37 408.13 610.67Z" />
									</g>
									<g id="&lt;Group&gt;">
										<path id="&lt;Path&gt;" class="shp13" d="M407.53 534.67C392.8 531.99 390.93 531.02 375.98 531.94C361.03 532.87 345.94 537.18 334.17 546.45C322.71 555.49 315.02 568.81 311.36 582.94C307.71 597.08 307.89 612.01 310.25 626.42C311.36 633.15 313.26 640.34 318.61 644.6C319.39 636.87 320.18 629.08 322.56 621.69C324.93 614.3 329.04 607.24 335.32 602.68C337.84 600.85 340.79 599.3 342.23 596.54C343.47 594.17 343.34 591.35 343.78 588.71C344.8 582.68 348.92 577.54 353.85 573.93C358.78 570.31 364.51 567.98 370.12 565.56C388.27 557.72 408.08 553.24 424.83 542.74C422.07 540.37 416.31 537.67 407.53 534.67Z" />
									</g>
									<path id="&lt;Path&gt;" class="shp13" d="M332.26 592.39C336.18 597.13 341.65 600.59 347.65 601.97C354.8 603.61 372.7 603.21 373.77 601.34C375.05 599.09 368.49 579.37 361.25 578.17C366.56 582.62 372.08 587.18 378.75 589.04C385.42 590.91 396.68 590 401.19 588.94C404.95 588.06 396.49 572.37 390.32 567.87C408.91 571.76 428.55 576.18 442.26 589.33C456.35 602.86 461.54 623.56 460.85 643.09C467.22 638.08 471.02 629.98 470.82 621.88C477.45 642 475.42 664.81 465.34 683.44C485.12 667.22 492.51 638.88 487.3 613.83C482.1 588.79 465.82 567.06 445.86 551.07C428.79 537.39 408.07 527.17 386.21 526.66C357.37 525.98 304.22 558.6 332.26 592.39Z" />
								</g>
								<g id="&lt;Group&gt;">
									<g id="&lt;Group&gt;">
										<path id="&lt;Path&gt;" class="shp16" d="M355.5 707.69C355.67 706.27 355.84 704.4 356.01 702.38C356.8 692.95 350.33 684.45 341.03 682.74C340.95 682.72 340.87 682.71 340.79 682.69C338.08 682.2 335.84 680.28 334.94 677.68C331.59 668.01 330.31 665.09 327.11 655.59C318.39 653.49 308.12 656.7 299.08 657.68C296.58 668.45 296.41 679.77 298.58 690.61C299.07 693.03 299.71 695.52 301.34 697.37C302.97 699.21 320.57 711.65 328.24 713.94C336.23 716.32 347.19 708.46 355.5 707.69Z" />
									</g>
									<g id="&lt;Group&gt;">
										<path id="&lt;Path&gt;" class="shp16" d="M329.37 714.18C313.53 816.39 313.76 875.29 330.08 890.87C344.47 904.61 356.89 897.03 364.68 888.45C370.48 882.06 373.07 873.39 372.18 864.81L355.5 707.69C344.5 701.31 335.79 703.47 329.37 714.18Z" />
									</g>
								</g>
								<g id="&lt;Group&gt;">
									<path id="&lt;Path&gt;" class="shp16" d="M584.69 852.53C594.24 845.2 602.67 829.98 604.8 820.3C605.48 817.19 605.75 812.54 605.68 806.9C605.52 788.38 602.83 762.15 597.61 728.2L575.04 720.75C570.36 746.57 567.5 766.58 566.46 780.78C566.16 784.96 565.69 789.89 565.18 795.09C564.17 804.57 562.96 815.03 561.88 823.67L584.69 852.53Z" />
									<g id="&lt;Group&gt;">
										<path id="&lt;Path&gt;" class="shp13" d="M597.61 868.89C604.53 862.55 605.71 854.89 609.29 838.52C612.7 823.06 608.85 804.2 605.68 806.9C605.38 807.14 605.07 807.61 604.8 808.25C599.33 821.17 578.01 809.84 571.97 803.39C569.6 800.86 566.77 798.02 565.18 795.09C563.7 792.46 563.26 789.79 565.01 787.23C558.47 784.53 553.2 810.31 556.34 816.65L557.94 821.43C560.54 829.2 564.56 836.42 569.8 842.73L581.66 857.01L597.61 868.89Z" />
									</g>
									<path id="&lt;Path&gt;" class="shp16" d="M574.45 724.04L571.75 684.65C574.84 686.36 582.1 689.16 593.53 693.04C604.51 696.77 619.28 690.18 615.99 697.3C612.41 705.04 606.28 715.34 597.61 728.2L574.45 724.04Z" />
									<path id="&lt;Path&gt;" class="shp16" d="M571.75 684.65L588.56 645.18L610.62 658.69C614.67 667.48 616.46 680.35 615.99 697.3C595.6 698.23 580.86 694.01 571.75 684.65Z" />
								</g>
							</g>
						</g>
					</g>
				</g>
				<path id="&lt;Path&gt;" class="shp13" d="M426.11 654.25C426.68 657.08 428.69 659.04 430.53 658.63C432.37 658.22 433.35 655.64 432.74 652.82C432.13 650 430.16 648.07 428.32 648.48C426.48 648.89 425.5 651.59 426.11 654.25Z" />
			</g>
			<g id="&lt;Group&gt;">
				<g id="&lt;Group&gt;">
					<path id="&lt;Path&gt;" class="shp7" d="M371.39 1190.14L358.08 995.88C356.16 968.45 342.8 945.58 324.26 934.75C312.56 925.54 298.45 919.81 283.25 918.85C281.67 918.69 280.09 918.65 278.51 918.65C266.17 918.65 254.47 921.76 244.09 927.4C243.75 927.53 243.45 927.74 243.11 927.9C232.35 933.84 222.98 942.34 215.68 952.8L215.65 952.84C205.41 967.57 199.28 986 199.28 1006.05C199.28 1049.21 227.68 1085.15 265 1092.16L279.41 1302.32C280.65 1320.2 292.39 1333.9 306.5 1333.9L378.85 1333.9L371.39 1190.14Z" />
				</g>
				<path id="&lt;Path&gt;" class="shp1" d="M371.39 1190.14L358.08 995.88C356.16 968.45 342.8 945.58 324.26 934.75C312.56 925.54 298.45 919.81 283.25 918.85C281.67 918.69 280.09 918.65 278.51 918.65C266.17 918.65 254.47 921.76 244.09 927.4C243.75 927.53 243.45 927.74 243.11 927.9C232.35 933.84 222.98 942.34 215.68 952.8L215.65 952.84C205.41 967.57 199.28 986 199.28 1006.05C199.28 1049.21 227.68 1085.15 265 1092.16L279.41 1302.32C280.65 1320.2 292.39 1333.9 306.5 1333.9L378.85 1333.9L371.39 1190.14Z" />
			</g>
		</g>
	</g>
</svg>